# Blender 5.2.0 LTS
# www.blender.org
mtllib tv.mtl
o Cube.002
v -3.794925 -0.047682 -6.920415
v -4.212036 2.129180 -7.628879
v 1.613796 0.108861 -9.623823
v 1.196685 2.285722 -10.332286
v -2.275209 0.177491 -3.866871
v -3.094715 4.454414 -5.258802
v 3.133513 0.334034 -6.570278
v 2.314007 4.610957 -7.962210
vn -0.4102 -0.3524 -0.8412
vn 0.8942 0.0259 -0.4469
vn 0.4102 0.3524 0.8412
vn -0.8942 -0.0259 0.4469
vn 0.0526 -0.9975 0.0474
vn -0.3142 0.7475 -0.5853
vt 0.625000 0.000000
vt 0.375000 0.250000
vt 0.375000 0.000000
vt 0.625000 0.250000
vt 0.375000 0.500000
vt 0.625000 0.500000
vt 0.375000 0.750000
vt 0.625000 1.000000
vt 0.375000 1.000000
vt 0.125000 0.750000
vt 0.125000 0.500000
vt 0.875000 0.500000
vt 0.625000 0.750000
vt 0.875000 0.750000
s 0
usemtl Material.003
f 2/1/1 3/2/1 1/3/1
f 4/4/2 7/5/2 3/2/2
f 8/6/3 5/7/3 7/5/3
f 5/7/4 2/8/4 1/9/4
f 7/5/5 1/10/5 3/11/5
f 4/12/6 6/13/6 8/6/6
f 2/1/1 4/4/1 3/2/1
f 4/4/2 8/6/2 7/5/2
f 8/6/3 6/13/3 5/7/3
f 5/7/4 6/13/4 2/8/4
f 7/5/5 5/7/5 1/10/5
f 4/12/6 2/14/6 6/13/6
o Cube.005
v -2.279985 -0.060693 -3.994979
v -1.533720 0.408517 -4.495980
v -3.174550 4.607953 -5.514397
v -2.271636 4.259626 -5.749330
v 3.414545 0.104122 -6.841240
v 2.504987 0.525408 -6.514622
v 2.519981 4.772768 -8.360659
v 1.767071 4.376517 -7.767972
v -1.448460 0.653529 -2.289986
v -2.343025 5.322175 -3.809404
v 4.246070 0.818344 -5.136247
v 3.351506 5.486990 -6.655665
v -0.722729 1.105103 -2.833089
v 3.269336 1.220644 -4.828418
v -0.767578 1.339163 -2.909265
v 2.636682 4.767178 -6.005517
v 3.307456 1.266469 -4.866205
v 3.315978 1.221994 -4.851731
v -1.452122 4.911737 -4.071964
v 2.578063 5.073103 -6.105081
v -1.414003 4.957562 -4.109752
v -1.460644 4.956212 -4.086439
vn -0.4102 -0.3524 -0.8412
vn 0.8942 0.0259 -0.4469
vn 0.4102 0.3524 0.8412
vn -0.8942 -0.0259 0.4469
vn 0.1793 -0.9355 0.3045
vn -0.1793 0.9355 -0.3045
vt 0.625000 0.000000
vt 0.375000 0.250000
vt 0.375000 0.000000
vt 0.625000 0.250000
vt 0.375000 0.500000
vt 0.397929 0.539278
vt 0.375000 0.750000
vt 0.625000 0.750000
vt 0.375000 1.000000
vt 0.125000 0.750000
vt 0.125000 0.500000
vt 0.875000 0.500000
vt 0.625000 0.500000
vt 0.604151 0.714537
vt 0.604151 0.712489
vt 0.625000 1.000000
vt 0.875000 0.750000
vt 0.377887 0.497113
vt 0.390194 0.752887
vt 0.375000 0.752887
vt 0.372113 0.502887
vt 0.627887 0.500000
vt 0.627887 0.747113
vt 0.605140 0.497113
vt 0.625000 0.497113
vt 0.622113 0.752887
vt 0.372113 0.750000
vt 0.627887 0.750000
vt 0.375000 0.497113
vt 0.372113 0.500000
vt 0.625000 0.752887
vt 0.587769 0.537231
vt 0.400311 0.537231
vt 0.397929 0.714537
vt 0.410463 0.714537
vt 0.397929 0.537231
vt 0.604151 0.537231
vt 0.601770 0.714537
s 0
usemtl Material.009
f 11/15/7 13/16/7 9/17/7
f 15/18/8 19/19/8 13/16/8
f 22/20/9 17/21/9 19/19/9
f 18/22/10 9/23/10 17/21/10
f 19/19/11 9/24/11 13/25/11
f 15/26/12 18/22/12 20/27/12
f 11/15/7 15/18/7 13/16/7
f 15/18/8 20/27/8 19/19/8
f 18/22/9 30/28/9 29/29/9
f 18/22/10 11/30/10 9/23/10
f 19/19/11 17/21/11 9/24/11
f 15/26/12 11/31/12 18/22/12
f 12/15/9 10/17/9 14/16/9
f 14/16/10 25/32/10 16/18/10
f 10/23/8 23/33/8 21/34/8
f 22/35/12 14/25/12 10/24/12
f 16/26/11 28/36/11 29/37/11
f 12/15/9 14/16/9 16/18/9
f 16/18/10 24/38/10 28/39/10
f 12/30/8 27/40/8 10/23/8
f 10/24/12 21/41/12 22/35/12
f 12/31/11 29/37/11 30/42/11
f 14/16/10 26/43/10 25/32/10
f 10/23/8 27/40/8 23/33/8
f 22/35/12 26/44/12 14/25/12
f 16/18/10 25/32/10 24/38/10
f 12/30/8 30/45/8 27/40/8
f 12/31/11 16/26/11 29/37/11
f 19/19/9 20/27/9 24/46/9
f 19/19/9 24/46/9 25/47/9
f 21/48/9 23/49/9 17/21/9
f 22/20/9 21/48/9 17/21/9
f 19/19/9 25/47/9 26/50/9
f 26/50/9 22/20/9 19/19/9
f 28/51/9 24/46/9 20/27/9
f 18/22/9 17/21/9 23/49/9
f 18/22/9 23/49/9 27/52/9
f 28/51/9 20/27/9 29/29/9
f 20/27/9 18/22/9 29/29/9
f 18/22/9 27/52/9 30/28/9
o Sphere
v 1.779332 5.201049 -6.583639
v 2.690662 4.468948 -6.721417
v 3.294490 3.495426 -6.608095
v 3.450092 2.963605 -6.461202
v 3.498888 2.428693 -6.260925
v 3.272739 1.431149 -5.732760
v 1.713362 5.169011 -6.643241
v 2.181678 4.832460 -6.759350
v 2.591932 4.421000 -6.810618
v 2.928359 3.950441 -6.795074
v 3.178030 3.438867 -6.713315
v 3.331350 2.905938 -6.568483
v 3.382428 2.372134 -6.366145
v 3.329300 1.857968 -6.114075
v 3.174008 1.383200 -5.821961
v 2.922521 0.966076 -5.501029
v 2.584502 0.622623 -5.163612
v 1.590590 5.136487 -6.670895
v 2.025418 4.791065 -6.794546
v 2.408190 4.372324 -6.852004
v 2.724196 3.896355 -6.841059
v 2.961291 3.381450 -6.762133
v 3.110366 2.847396 -6.618258
v 3.165689 2.314716 -6.414963
v 3.125137 1.803882 -6.160061
v 2.990267 1.334524 -5.863348
v 2.766261 0.924680 -5.536225
v 2.461729 0.590099 -5.191265
v 1.415733 5.104726 -6.665536
v 1.802867 4.750641 -6.787726
v 2.146497 4.324790 -6.843984
v 2.433419 3.843539 -6.832149
v 2.652604 3.325380 -6.752673
v 2.795631 2.790228 -6.608612
v 2.857002 2.258647 -6.405503
v 2.834360 1.751066 -6.151150
v 2.728574 1.286991 -5.855328
v 2.543710 0.884256 -5.529405
v 2.286872 0.558338 -5.185906
v 1.195510 5.074949 -6.627371
v 1.522578 4.712743 -6.739152
v 1.816911 4.280227 -6.786867
v 2.067203 3.794022 -6.768683
v 2.263831 3.272814 -6.685299
v 2.399241 2.736632 -6.539918
v 2.468229 2.206081 -6.338129
v 2.468144 1.701550 -6.087685
v 2.398988 1.242428 -5.798211
v 2.263420 0.846358 -5.480831
v 2.066649 0.528562 -5.147742
v 1.195320 4.678827 -6.650691
v 1.432097 4.240345 -6.682847
v 1.639620 3.749709 -6.653103
v 1.809911 3.225771 -6.562599
v 1.936429 2.688667 -6.414815
v 2.014310 2.159038 -6.215429
v 2.040561 1.657236 -5.972105
v 2.014174 1.202546 -5.694191
v 1.936163 0.812442 -5.392370
v 0.833671 4.650196 -6.525742
v 1.006843 4.206679 -6.535923
v 1.167103 3.712300 -6.489849
v 1.308290 3.186059 -6.389290
v 1.424980 2.648176 -6.238110
v 1.512688 2.119325 -6.042120
v 1.568044 1.619828 -5.808851
v 1.588920 1.168880 -5.547266
v 1.574514 0.783811 -5.267421
v 0.557492 4.180521 -6.351740
v 0.667810 3.683235 -6.285195
v 0.778244 3.155203 -6.172031
v 0.884550 2.616717 -6.016594
v 0.982642 2.088470 -5.824861
v 1.068752 1.590762 -5.604197
v 1.139568 1.142722 -5.363083
v 1.192372 0.761565 -5.110785
v 0.101311 4.162877 -6.137375
v 0.160929 3.663630 -6.047007
v 0.240142 3.134390 -5.919171
v 0.335906 2.595496 -5.758781
v 0.444540 2.067657 -5.572001
v 0.561871 1.571157 -5.366008
v 0.683388 1.125077 -5.148719
v 0.804422 0.746560 -4.928483
v -0.344168 4.154425 -5.901068
v -0.334060 3.654238 -5.784437
v -0.285336 3.124420 -5.640428
v -0.199868 2.585330 -5.474577
v -0.080938 2.057687 -5.293258
v 0.066881 1.561766 -5.103438
v 0.237908 1.116625 -4.912412
v 0.425573 0.739372 -4.727521
v -0.527547 4.991602 -5.869010
v -0.670459 4.606662 -5.773942
v -0.761826 4.155489 -5.651900
v -0.798137 3.655421 -5.507575
v -0.777998 3.125675 -5.346513
v -0.702181 2.586611 -5.174904
v -0.573600 2.058942 -4.999343
v -0.397196 1.562948 -4.826576
v -0.179750 1.117689 -4.663243
v 0.070384 0.740277 -4.515620
v -0.777303 4.998645 -5.700325
v -0.988338 4.615625 -5.559246
v -1.135613 4.166029 -5.399445
v -1.213467 3.667132 -5.227062
v -1.218909 3.138108 -5.048722
v -1.151730 2.599287 -4.871279
v -1.014511 2.071375 -4.701552
v -0.812526 1.574660 -4.546063
v -0.553536 1.128230 -4.410788
v -0.247496 0.749241 -4.300925
v -1.256693 4.632303 -5.350007
v -1.451164 4.185640 -5.153405
v -1.564089 3.688923 -4.953678
v -1.591127 3.161241 -4.758499
v -1.531240 2.622873 -4.575370
v -1.386729 2.094508 -4.411329
v -1.163147 1.596450 -4.272679
v -0.869087 1.147840 -4.164749
v -0.515850 0.765918 -4.091685
v -1.465208 4.656054 -5.154264
v -1.696352 4.213568 -4.923236
v -1.836528 3.719955 -4.697927
v -1.880347 3.194184 -4.486996
v -1.826125 2.656462 -4.298548
v -1.675948 2.127451 -4.139826
v -1.435586 1.627482 -4.016929
v -1.114276 1.175768 -3.934579
v -0.724365 0.789669 -3.895943
v -1.605873 4.685966 -4.979540
v -1.861756 4.248740 -4.717783
v -2.020314 3.759036 -4.469640
v -2.075454 3.235672 -4.244648
v -2.025054 2.698763 -4.051452
v -1.871055 2.168939 -3.897477
v -1.619373 1.666563 -3.788641
v -1.279680 1.210940 -3.729126
v -0.865030 0.819580 -3.721219
v -1.673280 4.720887 -4.832551
v -1.941019 4.289804 -4.544941
v -2.108387 3.804664 -4.277588
v -2.168950 3.284111 -4.040767
v -2.120383 2.748150 -3.843577
v -1.964552 2.217378 -3.693596
v -1.707445 1.712191 -3.596590
v -1.358942 1.252004 -3.556284
v -0.932437 0.854502 -3.574229
v -1.664840 4.759479 -4.718943
v -1.931094 4.335182 -4.411353
v -2.097359 3.855085 -4.129153
v -2.157244 3.337638 -3.883188
v -2.108447 2.802726 -3.682911
v -1.952846 2.270905 -3.536018
v -1.696418 1.762612 -3.448154
v -1.349018 1.297383 -3.422696
v -0.923997 0.893093 -3.460622
v -1.242857 5.143707 -4.980501
v -1.580877 4.800255 -4.643084
v -1.832364 4.383130 -4.322152
v -1.987656 3.908362 -4.030038
v -2.040784 3.394197 -3.777968
v -1.989705 2.860393 -3.575630
v -1.836385 2.327464 -3.430798
v -1.586715 1.815890 -3.349039
v -1.250288 1.345331 -3.333495
v -0.840034 0.933870 -3.384762
v -1.120085 5.176232 -4.952848
v -1.424618 4.841651 -4.607888
v -1.648623 4.431807 -4.280766
v -1.783493 3.962449 -3.984052
v -1.824045 3.451614 -3.729150
v -1.768720 2.918935 -3.525856
v -1.619647 2.384881 -3.381980
v -1.382552 1.869976 -3.303054
v -1.066546 1.394007 -3.292109
v -0.683775 0.975266 -3.349566
v -0.945228 5.207993 -4.958207
v -1.202067 4.882074 -4.614708
v -1.386930 4.479340 -4.288785
v -1.492716 4.015265 -3.992963
v -1.515358 3.507684 -3.738610
v -1.453986 2.976103 -3.535501
v -1.310960 2.440950 -3.391440
v -1.091775 1.922792 -3.311965
v -0.804854 1.441540 -3.300129
v -0.461224 1.015689 -3.356387
v -0.725005 5.237769 -4.996371
v -0.921777 4.919972 -4.663282
v -1.057344 4.523903 -4.345902
v -1.126500 4.064781 -4.056428
v -1.126585 3.560250 -3.805984
v -1.057596 3.029699 -3.604196
v -0.922187 2.493517 -3.458814
v -0.725559 1.972308 -3.375430
v -0.475268 1.486104 -3.357246
v -0.180934 1.053588 -3.404961
v -0.467881 5.264417 -5.065875
v -0.594519 4.953889 -4.751743
v -0.672530 4.563785 -4.449922
v -0.698918 4.109095 -4.172009
v -0.672666 3.607293 -3.928684
v -0.594784 3.077664 -3.729299
v -0.468268 2.540560 -3.581514
v -0.297976 2.016622 -3.491010
v -0.090454 1.525985 -3.461265
v 0.146324 1.087504 -3.493422
v -0.183736 5.286912 -5.164046
v -0.232871 4.982520 -4.876692
v -0.247276 4.597451 -4.596847
v -0.226401 4.146503 -4.335262
v -0.171044 3.647006 -4.101993
v -0.083336 3.118154 -3.906003
v 0.033354 2.580272 -3.754823
v 0.174540 2.054030 -3.654264
v 0.334800 1.559652 -3.608190
v 0.507972 1.116135 -3.618371
v 0.687403 0.740524 -3.684417
v 0.116511 5.304390 -5.287114
v 0.149271 5.004766 -5.033327
v 0.202075 4.623609 -4.781030
v 0.272892 4.175568 -4.539916
v 0.359002 3.677861 -4.319252
v 0.457095 3.149614 -4.127519
v 0.563400 2.611128 -3.972082
v 0.673833 2.083096 -3.858917
v 0.784152 1.585810 -3.792373
v 0.890114 1.138381 -3.775006
v 0.987650 0.758003 -3.807485
v 0.421322 5.316179 -5.430347
v 0.537221 5.019771 -5.215629
v 0.658256 4.641253 -4.995394
v 0.779773 4.195173 -4.778105
v 0.897103 3.698674 -4.572112
v 1.005738 3.170835 -4.385333
v 1.101501 2.631940 -4.224942
v 1.180714 2.102701 -4.097106
v 1.240332 1.603454 -4.006738
v 1.278064 1.153386 -3.957308
v 1.292460 0.769792 -3.950718
v 0.718981 5.321827 -5.588243
v 0.916070 5.026959 -5.416592
v 1.103735 4.649705 -5.231701
v 1.274762 4.204565 -5.040675
v 1.422582 3.708644 -4.850855
v 1.541511 3.181000 -4.669537
v 1.626980 2.641911 -4.503685
v 1.675704 2.112092 -4.359676
v 1.685811 1.611906 -4.243044
v 1.656913 1.160574 -4.158270
v 1.590120 0.775440 -4.108613
v 0.998051 5.321116 -5.754732
v 1.271259 5.026053 -5.628492
v 1.521393 4.648641 -5.480870
v 1.738839 4.203382 -5.317536
v 1.915243 3.707388 -5.144770
v 2.043824 3.179720 -4.969209
v 2.119641 2.640655 -4.797600
v 2.139781 2.110910 -4.636538
v 2.103469 1.610842 -4.492213
v 2.012102 1.159669 -4.370171
v 1.869190 0.774728 -4.275103
v 1.247807 5.314074 -5.923417
v 1.589139 5.017090 -5.843187
v 1.895179 4.638101 -5.733325
v 2.154169 4.191671 -5.598049
v 2.356154 3.694955 -5.442561
v 2.493373 3.167043 -5.272834
v 2.560553 2.628222 -5.095391
v 2.555110 2.099198 -4.917050
v 2.477256 1.600302 -4.744668
v 2.329982 1.150705 -4.584867
v 2.118946 0.767686 -4.443788
v 1.458651 5.300970 -6.087815
v 1.857493 5.000412 -6.052427
v 2.210730 4.618490 -5.979364
v 2.504790 4.169880 -5.871434
v 2.728372 3.671823 -5.732784
v 2.872882 3.143457 -5.568743
v 2.932770 2.605089 -5.385614
v 2.905731 2.077408 -5.190435
v 2.792806 1.580691 -4.990707
v 2.598336 1.134027 -4.794106
v 2.329790 0.754582 -4.608186
v 1.622481 5.282309 -6.241609
v 2.066009 4.976662 -6.248170
v 2.455919 4.590562 -6.209533
v 2.777229 4.138848 -6.127184
v 3.017591 3.638879 -6.004287
v 3.167767 3.109869 -5.845564
v 3.221989 2.572146 -5.657117
v 3.178170 2.046376 -5.446185
v 3.037995 1.552763 -5.220876
v 2.806851 1.110277 -4.989849
v 2.493620 0.735921 -4.761980
v 1.733000 5.258808 -6.378888
v 2.206673 4.946751 -6.422894
v 2.621322 4.555390 -6.414986
v 2.961016 4.099768 -6.355471
v 3.212698 3.597392 -6.246635
v 3.366696 3.067568 -6.092660
v 3.417096 2.530658 -5.899465
v 3.361957 2.007295 -5.674473
v 3.203398 1.517591 -5.426330
v 2.947516 1.080365 -5.164572
v 2.604139 0.712420 -4.899259
v 1.785961 5.231370 -6.494377
v 2.274081 4.911828 -6.569883
v 2.700585 4.514326 -6.587828
v 3.049088 4.054140 -6.547523
v 3.306195 3.548953 -6.450516
v 3.462024 3.018181 -6.300535
v 3.510593 2.482220 -6.103346
v 3.450029 1.961667 -5.866524
v 3.282661 1.476527 -5.599171
v 3.014923 1.045443 -5.311562
v 2.657100 0.684982 -5.014748
v 2.265640 4.873237 -6.683491
v 3.038060 4.003718 -6.695958
v 3.439002 1.911246 -6.014959
v 3.006483 1.006852 -5.425170
v 2.650469 0.654661 -5.104009
v 2.535494 0.592071 -5.123014
v 2.434229 0.571946 -5.165519
v 2.281706 0.554506 -5.180272
v 2.074417 0.541107 -5.160891
v 2.233887 0.551174 -5.176724
v 1.821877 0.532204 -5.108880
v 1.533243 0.528135 -5.026056
v 1.217767 0.529300 -4.914053
v 0.886786 0.535918 -4.775895
v 0.553498 0.547981 -4.616107
v 0.232481 0.565213 -4.440721
v -0.061075 0.587041 -4.257107
v -0.312388 0.612594 -4.073633
v -0.508253 0.640739 -3.899140
v -0.638203 0.670146 -3.742292
v -0.695476 0.699378 -3.610884
v -0.677614 0.727011 -3.511211
v -0.586595 0.751739 -3.447598
v -0.428484 0.772466 -3.422163
v -0.212694 0.788377 -3.434830
v 0.048994 0.798957 -3.483542
v 0.343477 0.803995 -3.564648
v 0.657296 0.803549 -3.673335
v 0.977419 0.797902 -3.804078
v 1.291795 0.787509 -3.951023
v 1.589253 0.772857 -4.108506
v 1.553135 0.774738 -4.088995
v 1.856465 0.754263 -4.270763
v 2.088475 0.733212 -4.430427
v 2.280450 0.710387 -4.583227
v 2.428645 0.686448 -4.725371
v 2.530165 0.662028 -4.853445
v 2.582793 0.637745 -4.964324
v 2.584908 0.614218 -5.055093
vn 0.4044 0.7565 -0.5141
vn 0.6273 0.5604 -0.5407
vn 0.8382 0.2178 -0.5000
vn 0.8942 0.0259 -0.4469
vn 0.9119 -0.1671 -0.3747
vn 0.8340 -0.5181 -0.1897
vn 0.1903 0.5462 -0.8157
vn 0.2366 0.4629 -0.8542
vn 0.3144 0.2987 -0.9011
vn 0.3782 0.1326 -0.9162
vn 0.4283 -0.0318 -0.9031
vn 0.4652 -0.1921 -0.8641
vn 0.4887 -0.3469 -0.8005
vn 0.4984 -0.4945 -0.7121
vn 0.4927 -0.6320 -0.5982
vn 0.4699 -0.7546 -0.4580
vn 0.4277 -0.8554 -0.2922
vn -0.0018 0.3350 -0.9422
vn 0.0195 0.2458 -0.9691
vn 0.0547 0.0915 -0.9943
vn 0.0843 -0.0450 -0.9954
vn 0.1098 -0.1685 -0.9796
vn 0.1324 -0.2837 -0.9497
vn 0.1531 -0.3948 -0.9059
vn 0.1724 -0.5050 -0.8457
vn 0.1904 -0.6167 -0.7638
vn 0.2065 -0.7300 -0.6516
vn 0.2186 -0.8402 -0.4963
vn -0.1363 0.1868 -0.9729
vn -0.1250 0.1048 -0.9866
vn -0.1053 -0.0268 -0.9941
vn -0.0876 -0.1358 -0.9869
vn -0.0709 -0.2309 -0.9704
vn -0.0546 -0.3185 -0.9464
vn -0.0379 -0.4033 -0.9143
vn -0.0198 -0.4896 -0.8717
vn 0.0009 -0.5815 -0.8136
vn 0.0259 -0.6826 -0.7303
vn 0.0572 -0.7945 -0.6046
vn -0.1866 0.1320 -0.9735
vn -0.2083 0.0071 -0.9780
vn -0.2084 -0.0941 -0.9735
vn -0.1954 -0.1849 -0.9631
vn -0.1826 -0.2628 -0.9474
vn -0.1696 -0.3342 -0.9271
vn -0.1556 -0.4037 -0.9015
vn -0.1397 -0.4755 -0.8686
vn -0.1204 -0.5538 -0.8239
vn -0.0951 -0.6440 -0.7591
vn -0.0240 -0.7162 -0.6975
vn -0.2877 -0.0854 -0.9539
vn -0.2821 -0.1340 -0.9500
vn -0.2714 -0.2132 -0.9386
vn -0.2607 -0.2808 -0.9237
vn -0.2495 -0.3426 -0.9058
vn -0.2372 -0.4029 -0.8839
vn -0.2230 -0.4657 -0.8564
vn -0.2053 -0.5352 -0.8194
vn -0.1812 -0.6171 -0.7657
vn -0.3176 -0.1024 -0.9427
vn -0.3308 -0.1684 -0.9286
vn -0.3308 -0.2300 -0.9153
vn -0.3212 -0.2914 -0.9011
vn -0.3111 -0.3475 -0.8846
vn -0.2999 -0.4024 -0.8649
vn -0.2868 -0.4597 -0.8405
vn -0.2701 -0.5237 -0.8080
vn -0.2470 -0.6002 -0.7608
vn -0.3858 -0.2059 -0.8993
vn -0.3814 -0.2394 -0.8929
vn -0.3725 -0.2975 -0.8791
vn -0.3630 -0.3505 -0.8633
vn -0.3524 -0.4025 -0.8449
vn -0.3397 -0.4569 -0.8221
vn -0.3235 -0.5179 -0.7919
vn -0.3007 -0.5913 -0.7483
vn -0.4322 -0.2103 -0.8769
vn -0.4280 -0.2432 -0.8704
vn -0.4195 -0.3002 -0.8567
vn -0.4102 -0.3524 -0.8412
vn -0.3997 -0.4034 -0.8231
vn -0.3871 -0.4569 -0.8009
vn -0.3707 -0.5169 -0.7716
vn -0.3475 -0.5893 -0.7294
vn -0.4781 -0.2086 -0.8532
vn -0.4741 -0.2421 -0.8466
vn -0.4657 -0.3002 -0.8325
vn -0.4563 -0.3532 -0.8167
vn -0.4455 -0.4052 -0.7983
vn -0.4324 -0.4596 -0.7758
vn -0.4152 -0.5206 -0.7461
vn -0.3905 -0.5939 -0.7034
vn -0.5596 0.0031 -0.8287
vn -0.5599 -0.0602 -0.8264
vn -0.5362 -0.1743 -0.8259
vn -0.5227 -0.2356 -0.8193
vn -0.5143 -0.2970 -0.8046
vn -0.5045 -0.3531 -0.7879
vn -0.4930 -0.4080 -0.7684
vn -0.4787 -0.4653 -0.7445
vn -0.4598 -0.5292 -0.7131
vn -0.4323 -0.6056 -0.6681
vn -0.5790 -0.0658 -0.8127
vn -0.5841 -0.1428 -0.7990
vn -0.5777 -0.2221 -0.7854
vn -0.5691 -0.2897 -0.7695
vn -0.5586 -0.3515 -0.7512
vn -0.5457 -0.4118 -0.7298
vn -0.5293 -0.4745 -0.7033
vn -0.5072 -0.5439 -0.6685
vn -0.4749 -0.6256 -0.6189
vn -0.6490 -0.0515 -0.7590
vn -0.6489 -0.1069 -0.7534
vn -0.6442 -0.1978 -0.7388
vn -0.6357 -0.2759 -0.7210
vn -0.6239 -0.3474 -0.7000
vn -0.6087 -0.4169 -0.6751
vn -0.5885 -0.4885 -0.6442
vn -0.5608 -0.5666 -0.6038
vn -0.5200 -0.6563 -0.5468
vn -0.7261 0.0204 -0.6873
vn -0.7302 -0.0449 -0.6817
vn -0.7300 -0.1544 -0.6657
vn -0.7224 -0.2498 -0.6447
vn -0.7089 -0.3374 -0.6193
vn -0.6894 -0.4221 -0.5887
vn -0.6622 -0.5082 -0.5506
vn -0.6239 -0.5996 -0.5012
vn -0.5676 -0.6998 -0.4337
vn -0.8173 0.1444 -0.5577
vn -0.8318 0.0658 -0.5512
vn -0.8441 -0.0718 -0.5314
vn -0.8409 -0.1960 -0.5044
vn -0.8253 -0.3114 -0.4710
vn -0.7976 -0.4223 -0.4307
vn -0.7559 -0.5319 -0.3817
vn -0.6961 -0.6424 -0.3207
vn -0.6107 -0.7536 -0.2431
vn -0.8871 0.3510 -0.2998
vn -0.9224 0.2629 -0.2829
vn -0.9650 0.0937 -0.2448
vn -0.9770 -0.0724 -0.2006
vn -0.9605 -0.2334 -0.1515
vn -0.9166 -0.3876 -0.0981
vn -0.8449 -0.5334 -0.0407
vn -0.7441 -0.6678 0.0200
vn -0.6127 -0.7860 0.0831
vn -0.7915 0.5957 0.1365
vn -0.8340 0.5181 0.1897
vn -0.8910 0.3514 0.2874
vn -0.9119 0.1672 0.3747
vn -0.8942 -0.0259 0.4469
vn -0.8382 -0.2178 0.5000
vn -0.7473 -0.3988 0.5315
vn -0.6273 -0.5604 0.5407
vn -0.4853 -0.6966 0.5285
vn -0.3250 0.8059 0.4948
vn -0.4330 0.7365 0.5197
vn -0.4927 0.6320 0.5982
vn -0.4984 0.4945 0.7121
vn -0.4887 0.3469 0.8005
vn -0.4652 0.1921 0.8641
vn -0.4283 0.0318 0.9031
vn -0.3782 -0.1326 0.9162
vn -0.3144 -0.2987 0.9011
vn -0.2366 -0.4629 0.8542
vn -0.2135 0.7887 0.5765
vn -0.2065 0.7300 0.6516
vn -0.1904 0.6167 0.7638
vn -0.1724 0.5050 0.8457
vn -0.1531 0.3948 0.9059
vn -0.1324 0.2837 0.9497
vn -0.1098 0.1685 0.9796
vn -0.0843 0.0450 0.9954
vn -0.0547 -0.0915 0.9943
vn -0.0195 -0.2458 0.9691
vn -0.0413 0.7401 0.6713
vn -0.0259 0.6826 0.7303
vn -0.0009 0.5815 0.8136
vn 0.0198 0.4896 0.8717
vn 0.0379 0.4033 0.9143
vn 0.0547 0.3185 0.9464
vn 0.0709 0.2309 0.9704
vn 0.0876 0.1358 0.9869
vn 0.1053 0.0268 0.9941
vn 0.1250 -0.1048 0.9866
vn 0.0781 0.6979 0.7120
vn 0.0951 0.6440 0.7591
vn 0.1204 0.5538 0.8239
vn 0.1397 0.4755 0.8686
vn 0.1556 0.4037 0.9015
vn 0.1696 0.3342 0.9271
vn 0.1826 0.2628 0.9474
vn 0.1954 0.1849 0.9631
vn 0.2084 0.0941 0.9735
vn 0.2221 -0.0189 0.9748
vn 0.1643 0.6676 0.7262
vn 0.1812 0.6171 0.7657
vn 0.2053 0.5352 0.8194
vn 0.2230 0.4657 0.8564
vn 0.2372 0.4029 0.8840
vn 0.2495 0.3426 0.9058
vn 0.2607 0.2808 0.9237
vn 0.2714 0.2132 0.9386
vn 0.2821 0.1340 0.9500
vn 0.2929 0.0339 0.9555
vn 0.2305 0.6481 0.7259
vn 0.2470 0.6002 0.7608
vn 0.2701 0.5237 0.8080
vn 0.2868 0.4597 0.8405
vn 0.2999 0.4024 0.8649
vn 0.3111 0.3475 0.8846
vn 0.3212 0.2914 0.9011
vn 0.3308 0.2300 0.9153
vn 0.3402 0.1579 0.9270
vn 0.3493 0.0658 0.9347
vn 0.3783 0.0180 0.9255
vn 0.2843 0.6376 0.7160
vn 0.3007 0.5913 0.7483
vn 0.3235 0.5179 0.7919
vn 0.3397 0.4569 0.8221
vn 0.3524 0.4025 0.8449
vn 0.3630 0.3505 0.8633
vn 0.3725 0.2975 0.8791
vn 0.3814 0.2394 0.8929
vn 0.3900 0.1710 0.9048
vn 0.3980 0.0835 0.9136
vn 0.4017 0.0248 0.9154
vn 0.3306 0.6350 0.6982
vn 0.3475 0.5893 0.7294
vn 0.3707 0.5169 0.7716
vn 0.3871 0.4569 0.8009
vn 0.3997 0.4034 0.8231
vn 0.4102 0.3524 0.8412
vn 0.4195 0.3002 0.8567
vn 0.4280 0.2432 0.8704
vn 0.4360 0.1760 0.8826
vn 0.4432 0.0899 0.8919
vn 0.4461 0.0321 0.8944
vn 0.3725 0.6401 0.6720
vn 0.3905 0.5939 0.7034
vn 0.4152 0.5206 0.7461
vn 0.4324 0.4596 0.7758
vn 0.4455 0.4052 0.7983
vn 0.4563 0.3532 0.8167
vn 0.4657 0.3002 0.8325
vn 0.4741 0.2421 0.8466
vn 0.4817 0.1737 0.8590
vn 0.4879 0.0861 0.8687
vn 0.4901 -0.0375 0.8708
vn 0.4121 0.6533 0.6351
vn 0.4323 0.6056 0.6681
vn 0.4598 0.5292 0.7131
vn 0.4787 0.4653 0.7445
vn 0.4930 0.4080 0.7684
vn 0.5045 0.3531 0.7879
vn 0.5143 0.2970 0.8046
vn 0.5227 0.2356 0.8193
vn 0.5299 0.1633 0.8322
vn 0.5347 0.0712 0.8420
vn 0.5338 -0.0577 0.8436
vn 0.4511 0.6759 0.5829
vn 0.4749 0.6256 0.6189
vn 0.5072 0.5439 0.6685
vn 0.5293 0.4745 0.7033
vn 0.5457 0.4118 0.7298
vn 0.5586 0.3515 0.7512
vn 0.5691 0.2897 0.7695
vn 0.5777 0.2221 0.7854
vn 0.5841 0.1428 0.7990
vn 0.5867 0.0424 0.8087
vn 0.5805 -0.0959 0.8086
vn 0.4900 0.7098 0.5061
vn 0.5200 0.6563 0.5468
vn 0.5608 0.5666 0.6038
vn 0.5885 0.4885 0.6442
vn 0.6087 0.4169 0.6751
vn 0.6239 0.3474 0.7000
vn 0.6357 0.2759 0.7210
vn 0.6442 0.1978 0.7388
vn 0.6489 0.1069 0.7534
vn 0.6470 -0.0066 0.7625
vn 0.6313 -0.1582 0.7592
vn 0.5271 0.7565 0.3872
vn 0.5676 0.6998 0.4337
vn 0.6239 0.5996 0.5012
vn 0.6622 0.5082 0.5506
vn 0.6894 0.4221 0.5887
vn 0.7089 0.3374 0.6193
vn 0.7224 0.2498 0.6447
vn 0.7300 0.1544 0.6657
vn 0.7302 0.0449 0.6817
vn 0.7185 -0.0877 0.6899
vn 0.6848 -0.2554 0.6825
vn 0.5522 0.8109 0.1937
vn 0.6107 0.7536 0.2431
vn 0.6961 0.6424 0.3207
vn 0.7559 0.5319 0.3817
vn 0.7976 0.4223 0.4307
vn 0.8253 0.3114 0.4710
vn 0.8409 0.1960 0.5044
vn 0.8441 0.0718 0.5314
vn 0.8318 -0.0658 0.5512
vn 0.7977 -0.2221 0.5607
vn 0.7305 -0.4006 0.5532
vn 0.5313 0.8391 -0.1165
vn 0.6127 0.7860 -0.0831
vn 0.7441 0.6678 -0.0200
vn 0.8449 0.5334 0.0407
vn 0.9166 0.3876 0.0981
vn 0.9605 0.2334 0.1515
vn 0.9770 0.0724 0.2006
vn 0.9650 -0.0937 0.2448
vn 0.9224 -0.2629 0.2829
vn 0.8460 -0.4316 0.3132
vn 0.7327 -0.5934 0.3332
vn 0.4853 0.6966 -0.5285
vn 0.7473 0.3988 -0.5315
vn 0.8910 -0.3514 -0.2874
vn 0.7454 -0.6610 -0.0866
vn 0.6307 -0.7758 0.0174
vn 0.4011 -0.8961 -0.1902
vn 0.2269 -0.8935 -0.3877
vn 0.0813 -0.8573 -0.5084
vn -0.0606 -0.7041 -0.7075
vn -0.0228 -0.7203 -0.6933
vn -0.1619 -0.6684 -0.7260
vn -0.2285 -0.6485 -0.7261
vn -0.2827 -0.6378 -0.7165
vn -0.3292 -0.6350 -0.6989
vn -0.3713 -0.6399 -0.6729
vn -0.4111 -0.6529 -0.6362
vn -0.4503 -0.6753 -0.5841
vn -0.4894 -0.7092 -0.5074
vn -0.5268 -0.7561 -0.3883
vn -0.5522 -0.8109 -0.1938
vn -0.5309 -0.8391 0.1190
vn -0.4018 -0.7543 0.5192
vn -0.1861 -0.5417 0.8197
vn 0.0058 -0.3306 0.9438
vn 0.1394 -0.1834 0.9731
vn 0.2319 -0.0895 0.9686
vn 0.3004 -0.0306 0.9533
vn 0.3624 0.0093 0.9320
vn 0.4885 -0.1282 0.8631
vn 0.4680 0.0281 0.8833
vn 0.5288 -0.1518 0.8350
vn 0.5703 -0.1948 0.7980
vn 0.6125 -0.2628 0.7455
vn 0.6518 -0.3634 0.6657
vn 0.6761 -0.5029 0.5385
vn 0.6580 -0.6717 0.3404
vn 0.5637 -0.8225 0.0755
vt 0.994054 0.385594
vt 0.966525 0.291076
vt 0.967976 0.283661
vt 0.921996 0.198885
vt 0.923146 0.191509
vt 0.860957 0.119669
vt 0.861728 0.112744
vt 0.897152 0.803758
vt 0.826991 0.890965
vt 0.896350 0.807274
vt 0.786138 0.056333
vt 0.786524 0.050263
vt 0.950572 0.706818
vt 0.949402 0.711370
vt 0.700725 0.011031
vt 0.700791 0.006173
vt 0.985341 0.601770
vt 0.983875 0.607320
vt 0.689641 0.007929
vt 0.686630 0.002445
vt 1.000000 0.493141
vt 0.998374 0.499566
vt 0.992433 0.392669
vt 0.970840 0.404054
vt 0.945602 0.302802
vt 0.902641 0.210392
vt 0.843945 0.130366
vt 0.881368 0.813572
vt 0.772077 0.065647
vt 0.931519 0.719266
vt 0.690027 0.018457
vt 0.963842 0.616677
vt 0.683441 0.016370
vt 0.977078 0.510125
vt 0.811626 0.144346
vt 0.745078 0.077789
vt 0.897905 0.730138
vt 0.669228 0.028129
vt 0.926371 0.629394
vt 0.667890 0.027622
vt 0.937336 0.524314
vt 0.930521 0.419204
vt 0.906407 0.318283
vt 0.866173 0.225494
vt 0.815468 0.895620
vt 0.852992 0.822361
vt 0.850876 0.336824
vt 0.814373 0.243520
vt 0.765544 0.160998
vt 0.793421 0.902207
vt 0.812543 0.833255
vt 0.706395 0.092238
vt 0.850171 0.743500
vt 0.661994 0.030908
vt 0.641898 0.041711
vt 0.639257 0.039642
vt 0.873294 0.644899
vt 0.881112 0.541490
vt 0.873478 0.437433
vt 0.761792 0.845798
vt 0.790447 0.758783
vt 0.606872 0.057964
vt 0.807012 0.662526
vt 0.810972 0.560914
vt 0.802320 0.457960
vt 0.781543 0.357631
vt 0.749577 0.263703
vt 0.707749 0.179620
vt 0.657716 0.108396
vt 0.701374 0.379855
vt 0.674547 0.285224
vt 0.640682 0.199462
vt 0.601071 0.125614
vt 0.702855 0.859480
vt 0.721253 0.775364
vt 0.564199 0.075756
vt 0.730351 0.681554
vt 0.729919 0.581790
vt 0.720098 0.479942
vt 0.515206 0.094474
vt 0.646409 0.701239
vt 0.641239 0.603303
vt 0.630147 0.502522
vt 0.613618 0.402631
vt 0.592312 0.307245
vt 0.567039 0.219752
vt 0.538725 0.143224
vt 0.506048 0.328947
vt 0.489663 0.239734
vt 0.473083 0.160567
vt 0.461578 0.113418
vt 0.645378 0.792593
vt 0.558422 0.720841
vt 0.548349 0.624648
vt 0.535935 0.524858
vt 0.521659 0.425110
vt 0.469645 0.739655
vt 0.454675 0.645060
vt 0.440934 0.546154
vt 0.428890 0.446487
vt 0.418946 0.349549
vt 0.411433 0.258683
vt 0.406603 0.177008
vt 0.405320 0.131825
vt 0.565748 0.809821
vt 0.334117 0.368336
vt 0.335163 0.275934
vt 0.341701 0.191963
vt 0.348707 0.148900
vt 0.485318 0.826422
vt 0.383243 0.757024
vt 0.363545 0.663833
vt 0.348513 0.565672
vt 0.338607 0.466025
vt 0.302214 0.772359
vt 0.278098 0.680336
vt 0.261852 0.582760
vt 0.253926 0.483067
vt 0.254509 0.384672
vt 0.263535 0.290897
vt 0.463261 0.973366
vt 0.370912 0.926436
vt 0.433967 0.914925
vt 0.280692 0.204909
vt 0.406981 0.841813
vt 0.333481 0.855460
vt 0.294185 0.163861
vt 0.182838 0.398012
vt 0.199022 0.303066
vt 0.225718 0.215401
vt 0.314168 0.936137
vt 0.267351 0.866903
vt 0.244235 0.175983
vt 0.229315 0.785147
vt 0.201223 0.694022
vt 0.183875 0.596854
vt 0.177713 0.497050
vt 0.135499 0.704440
vt 0.117191 0.607491
vt 0.112527 0.507514
vt 0.121534 0.407913
vt 0.143842 0.312029
vt 0.178702 0.223078
vt 0.265714 0.943691
vt 0.210856 0.875755
vt 0.201223 0.184655
vt 0.167012 0.794963
vt 0.141294 0.227671
vt 0.227247 0.948836
vt 0.165942 0.881711
vt 0.167228 0.189427
vt 0.117426 0.801476
vt 0.083150 0.711240
vt 0.064053 0.614315
vt 0.060576 0.514108
vt 0.072687 0.414041
vt 0.099900 0.317480
vt 0.045999 0.714182
vt 0.026308 0.617084
vt 0.023672 0.516596
vt 0.038013 0.416175
vt 0.068753 0.319222
vt 0.114838 0.229013
vt 0.200142 0.951385
vt 0.134197 0.884559
vt 0.143886 0.190049
vt 0.082294 0.804451
vt 0.100325 0.227041
vt 0.185419 0.951236
vt 0.116809 0.884181
vt 0.132272 0.186496
vt 0.062926 0.803765
vt 0.025425 0.713138
vt 0.005357 0.615676
vt 0.003184 0.514867
vt 0.018800 0.414218
vt 0.051564 0.317174
vt 0.000000 0.508936
vt 0.015877 0.408197
vt 0.049068 0.311373
vt 0.098367 0.221801
vt 0.183700 0.948372
vt 0.114520 0.880563
vt 0.132823 0.178962
vt 0.060155 0.799406
vt 0.022321 0.708104
vt 0.002110 0.610095
vt 0.109160 0.213450
vt 0.145324 0.167852
vt 0.074304 0.791479
vt 0.037045 0.699200
vt 0.016936 0.600479
vt 0.014476 0.498954
vt 0.029563 0.398273
vt 0.061526 0.301985
vt 0.265365 1.000000
vt 0.195181 0.942870
vt 0.127597 0.873793
vt 0.059630 0.384743
vt 0.088703 0.289299
vt 0.274716 0.995826
vt 0.219612 0.934897
vt 0.132467 0.202257
vt 0.155793 0.864071
vt 0.168962 0.153734
vt 0.105140 0.780211
vt 0.069375 0.686681
vt 0.049619 0.587101
vt 0.046393 0.485213
vt 0.151839 0.765956
vt 0.118472 0.670934
vt 0.099320 0.570379
vt 0.094922 0.468141
vt 0.105273 0.368039
vt 0.129836 0.273729
vt 0.294312 0.989734
vt 0.256269 0.924715
vt 0.167595 0.188597
vt 0.198320 0.851707
vt 0.202409 0.137300
vt 0.165087 0.348725
vt 0.183626 0.255812
vt 0.323536 0.981934
vt 0.303959 0.912674
vt 0.213395 0.172951
vt 0.253841 0.837119
vt 0.243953 0.119314
vt 0.212970 0.749190
vt 0.182855 0.652482
vt 0.164544 0.550867
vt 0.158596 0.448312
vt 0.286489 0.730501
vt 0.260394 0.631973
vt 0.243142 0.529250
vt 0.235305 0.426423
vt 0.237070 0.327490
vt 0.248243 0.236192
vt 0.361399 0.972698
vt 0.361031 0.899206
vt 0.268279 0.155887
vt 0.320472 0.820825
vt 0.291630 0.100555
vt 0.318655 0.305127
vt 0.321361 0.215606
vt 0.406557 0.962364
vt 0.425410 0.884813
vt 0.330247 0.138052
vt 0.395816 0.803429
vt 0.343353 0.081787
vt 0.369777 0.710585
vt 0.348338 0.610168
vt 0.332329 0.506332
vt 0.322328 0.403292
vt 0.459697 0.690213
vt 0.443383 0.587914
vt 0.428755 0.483005
vt 0.416394 0.379819
vt 0.406768 0.282508
vt 0.400219 0.194857
vt 0.457347 0.951318
vt 0.494655 0.870053
vt 0.396951 0.120138
vt 0.477028 0.785607
vt 0.397028 0.063716
vt 0.497937 0.260553
vt 0.481715 0.174784
vt 0.511837 0.939990
vt 0.566049 0.855516
vt 0.465774 0.102867
vt 0.560912 0.768073
vt 0.450734 0.047329
vt 0.444041 0.049032
vt 0.552702 0.670209
vt 0.450617 0.047009
vt 0.541777 0.566114
vt 0.528614 0.460217
vt 0.513790 0.356960
vt 0.639475 0.545684
vt 0.627800 0.438931
vt 0.610517 0.335678
vt 0.588432 0.240182
vt 0.562535 0.156224
vt 0.567893 0.928826
vt 0.636707 0.841795
vt 0.533942 0.086949
vt 0.644053 0.751557
vt 0.503842 0.034768
vt 0.644986 0.651411
vt 0.501779 0.032498
vt 0.598646 0.073054
vt 0.703709 0.829467
vt 0.722974 0.736757
vt 0.554200 0.023835
vt 0.732654 0.634625
vt 0.548857 0.020377
vt 0.732339 0.527511
vt 0.722101 0.420069
vt 0.702481 0.316894
vt 0.674445 0.222272
vt 0.639308 0.139966
vt 0.623277 0.918279
vt 0.785706 0.301439
vt 0.752282 0.207609
vt 0.708775 0.126714
vt 0.675735 0.908780
vt 0.764248 0.819053
vt 0.657177 0.061772
vt 0.794316 0.724315
vt 0.599739 0.014987
vt 0.811940 0.620584
vt 0.590631 0.010908
vt 0.816351 0.512393
vt 0.807432 0.404465
vt 0.815766 0.810997
vt 0.855020 0.714768
vt 0.707073 0.053583
vt 0.638580 0.008591
vt 0.879401 0.609907
vt 0.626074 0.004280
vt 0.887842 0.501002
vt 0.880060 0.392813
vt 0.856560 0.289995
vt 0.818575 0.196837
vt 0.767964 0.117045
vt 0.723102 0.900726
vt 0.911973 0.283065
vt 0.870471 0.190424
vt 0.814359 0.111371
vt 0.763422 0.894452
vt 0.856099 0.805639
vt 0.746244 0.048835
vt 0.902499 0.708525
vt 0.669125 0.004913
vt 0.932131 0.603055
vt 0.654337 0.000620
vt 0.943707 0.493833
vt 0.936826 0.385623
vt 0.773077 0.047719
vt 0.690134 0.004100
vt 0.967914 0.600313
vt 0.674713 0.000000
vt 0.981590 0.491186
vt 0.975329 0.383193
vt 0.949605 0.280935
vt 0.905790 0.188633
vt 0.846027 0.109926
vt 0.795031 0.890216
vt 0.883587 0.803197
vt 0.934771 0.705845
vt 0.827421 0.888448
vt 0.397032 0.061000
vt 0.344881 0.075226
vt 0.296320 0.089442
vt 0.761842 0.910442
vt 0.413256 0.982369
vt 0.816645 0.888190
s 1
usemtl Material.008
f 34/53/16 35/55/17 43/54/25
f 35/55/17 350/57/331 44/56/26
f 350/57/331 36/59/18 45/58/27
f 348/60/329 38/62/20 37/61/19
f 36/59/18 351/64/332 46/63/28
f 32/65/14 39/66/21 38/62/20
f 351/64/332 352/68/333 47/67/29
f 349/69/330 40/70/22 39/66/21
f 352/68/333 386/72/365 353/71/334
f 33/73/15 41/74/23 40/70/22
f 33/73/15 34/53/16 42/75/24
f 41/74/23 42/75/24 53/76/35
f 42/75/24 43/54/25 54/77/36
f 43/54/25 44/56/26 55/78/37
f 44/56/26 45/58/27 56/79/38
f 37/61/19 38/62/20 49/80/31
f 45/58/27 46/63/28 57/81/39
f 38/62/20 39/66/21 50/82/32
f 47/67/29 58/83/40 57/81/39
f 39/66/21 40/70/22 51/84/33
f 47/67/29 353/71/334 354/85/335
f 41/74/23 52/86/34 51/84/33
f 57/81/39 68/88/50 67/87/49
f 49/80/31 50/82/32 61/89/43
f 58/83/40 69/90/51 68/88/50
f 50/82/32 51/84/33 62/91/44
f 58/83/40 354/85/335 355/92/336
f 51/84/33 52/86/34 63/93/45
f 52/86/34 53/76/35 64/94/46
f 54/77/36 65/95/47 64/94/46
f 54/77/36 55/78/37 66/96/48
f 56/79/38 67/87/49 66/96/48
f 48/97/30 49/80/31 60/98/42
f 64/94/46 65/95/47 76/99/58
f 65/95/47 66/96/48 77/100/59
f 67/87/49 78/101/60 77/100/59
f 59/102/41 60/98/42 71/103/53
f 67/87/49 68/88/50 79/104/61
f 60/98/42 61/89/43 72/105/54
f 357/106/338 80/108/62 356/107/337
f 61/89/43 62/91/44 73/109/55
f 355/92/336 357/106/338 69/90/51
f 63/93/45 74/110/56 73/109/55
f 64/94/46 75/111/57 74/110/56
f 72/105/54 82/113/64 81/112/63
f 79/104/61 356/107/337 358/114/339
f 72/105/54 73/109/55 83/115/65
f 74/110/56 84/116/66 83/115/65
f 75/111/57 85/117/67 84/116/66
f 75/111/57 76/99/58 86/118/68
f 76/99/58 77/100/59 87/119/69
f 78/101/60 88/120/70 87/119/69
f 78/101/60 79/104/61 89/121/71
f 85/117/67 86/118/68 95/122/77
f 86/118/68 87/119/69 96/123/78
f 88/120/70 97/124/79 96/123/78
f 88/120/70 89/121/71 98/125/80
f 82/113/64 91/127/73 90/126/72
f 89/121/71 358/114/339 359/128/340
f 82/113/64 83/115/65 92/129/74
f 84/116/66 93/130/75 92/129/74
f 85/117/67 94/131/76 93/130/75
f 98/125/80 359/128/340 360/132/341
f 91/127/73 92/129/74 100/133/82
f 93/130/75 101/134/83 100/133/82
f 94/131/76 102/135/84 101/134/83
f 94/131/76 95/122/77 103/136/85
f 95/122/77 96/123/78 104/137/86
f 97/124/79 105/138/87 104/137/86
f 97/124/79 98/125/80 106/139/88
f 103/136/85 104/137/86 112/140/94
f 105/138/87 113/141/95 112/140/94
f 105/138/87 106/139/88 114/142/96
f 106/139/88 360/132/341 361/143/342
f 99/144/81 100/133/82 108/145/90
f 101/134/83 109/146/91 108/145/90
f 102/135/84 110/147/92 109/146/91
f 102/135/84 103/136/85 111/148/93
f 109/146/91 117/150/99 116/149/98
f 110/147/92 118/151/100 117/150/99
f 110/147/92 111/148/93 119/152/101
f 111/148/93 112/140/94 120/153/102
f 113/141/95 121/154/103 120/153/102
f 113/141/95 114/142/96 122/155/104
f 114/142/96 361/143/342 362/156/343
f 107/157/89 108/145/90 116/149/98
f 121/154/103 131/159/113 130/158/112
f 121/154/103 122/155/104 132/160/114
f 122/155/104 362/156/343 363/161/344
f 115/162/97 116/149/98 126/163/108
f 117/150/99 127/164/109 126/163/108
f 118/151/100 128/165/110 127/164/109
f 118/151/100 119/152/101 129/166/111
f 119/152/101 120/153/102 130/158/112
f 127/164/109 137/168/118 136/167/117
f 128/165/110 138/169/119 137/168/118
f 128/165/110 129/166/111 139/170/120
f 129/166/111 130/158/112 140/171/121
f 131/159/113 141/172/122 140/171/121
f 123/173/105 124/175/106 134/174/115
f 131/159/113 132/160/114 142/176/123
f 125/177/107 135/178/116 134/174/115
f 132/160/114 363/161/344 364/179/345
f 125/177/107 126/163/108 136/167/117
f 141/172/122 150/181/131 149/180/130
f 141/172/122 142/176/123 151/182/132
f 135/178/116 144/184/125 143/183/124
f 142/176/123 364/179/345 365/185/346
f 135/178/116 136/167/117 145/186/126
f 137/168/118 146/187/127 145/186/126
f 138/169/119 147/188/128 146/187/127
f 138/169/119 139/170/120 148/189/129
f 139/170/120 140/171/121 149/180/130
f 147/188/128 156/191/137 155/190/136
f 147/188/128 148/189/129 157/192/138
f 148/189/129 149/180/130 158/193/139
f 150/181/131 159/194/140 158/193/139
f 150/181/131 151/182/132 160/195/141
f 144/184/125 153/197/134 152/196/133
f 151/182/132 365/185/346 366/198/347
f 144/184/125 145/186/126 154/199/135
f 146/187/127 155/190/136 154/199/135
f 159/194/140 160/195/141 169/200/150
f 153/197/134 162/202/143 161/201/142
f 160/195/141 366/198/347 367/203/348
f 153/197/134 154/199/135 163/204/144
f 155/190/136 164/205/145 163/204/144
f 156/191/137 165/206/146 164/205/145
f 156/191/137 157/192/138 166/207/147
f 157/192/138 158/193/139 167/208/148
f 159/194/140 168/209/149 167/208/148
f 165/206/146 174/211/155 173/210/154
f 165/206/146 166/207/147 175/212/156
f 166/207/147 167/208/148 176/213/157
f 168/209/149 177/214/158 176/213/157
f 168/209/149 169/200/150 178/215/159
f 162/202/143 171/217/152 170/216/151
f 367/203/348 368/218/349 178/215/159
f 162/202/143 163/204/144 172/219/153
f 164/205/145 173/210/154 172/219/153
f 177/214/158 178/215/159 187/220/168
f 171/217/152 180/222/161 179/221/160
f 368/218/349 369/223/350 187/220/168
f 171/217/152 172/219/153 181/224/162
f 173/210/154 182/225/163 181/224/162
f 174/211/155 183/226/164 182/225/163
f 174/211/155 175/212/156 184/227/165
f 175/212/156 176/213/157 185/228/166
f 177/214/158 186/229/167 185/228/166
f 183/226/164 184/227/165 194/230/175
f 184/227/165 185/228/166 195/231/176
f 186/229/167 196/232/177 195/231/176
f 186/229/167 187/220/168 197/233/178
f 180/222/161 190/235/171 189/234/170
f 369/223/350 370/236/351 197/233/178
f 180/222/161 181/224/162 191/237/172
f 182/225/163 192/238/173 191/237/172
f 183/226/164 193/239/174 192/238/173
f 370/236/351 371/241/352 207/240/188
f 190/235/171 191/237/172 201/242/182
f 192/238/173 202/243/183 201/242/182
f 193/239/174 203/244/184 202/243/183
f 193/239/174 194/230/175 204/245/185
f 194/230/175 195/231/176 205/246/186
f 196/232/177 206/247/187 205/246/186
f 188/248/169 189/234/170 199/249/180
f 196/232/177 197/233/178 207/240/188
f 190/235/171 200/250/181 199/249/180
f 204/245/185 205/246/186 215/251/196
f 206/247/187 216/252/197 215/251/196
f 198/253/179 199/249/180 209/254/190
f 206/247/187 207/240/188 217/255/198
f 200/250/181 210/256/191 209/254/190
f 371/241/352 372/257/353 217/255/198
f 200/250/181 201/242/182 211/258/192
f 202/243/183 212/259/193 211/258/192
f 203/244/184 213/260/194 212/259/193
f 203/244/184 204/245/185 214/261/195
f 210/256/191 211/258/192 221/262/202
f 212/259/193 222/263/203 221/262/202
f 213/260/194 223/264/204 222/263/203
f 213/260/194 214/261/195 224/265/205
f 214/261/195 215/251/196 225/266/206
f 216/252/197 226/267/207 225/266/206
f 208/268/189 209/254/190 219/269/200
f 216/252/197 217/255/198 227/270/208
f 210/256/191 220/271/201 219/269/200
f 372/257/353 373/272/354 227/270/208
f 224/265/205 225/266/206 235/273/216
f 226/267/207 236/274/217 235/273/216
f 218/275/199 219/269/200 229/276/210
f 226/267/207 227/270/208 237/277/218
f 220/271/201 230/278/211 229/276/210
f 373/272/354 374/279/355 237/277/218
f 220/271/201 221/262/202 231/280/212
f 222/263/203 232/281/213 231/280/212
f 223/264/204 233/282/214 232/281/213
f 223/264/204 224/265/205 234/283/215
f 232/281/213 242/285/223 241/284/222
f 233/282/214 243/286/224 242/285/223
f 233/282/214 234/283/215 244/287/225
f 234/283/215 235/273/216 245/288/226
f 236/274/217 246/289/227 245/288/226
f 228/290/209 229/276/210 239/291/220
f 236/274/217 237/277/218 247/292/228
f 229/276/210 230/278/211 240/293/221
f 374/279/355 375/294/356 247/292/228
f 230/278/211 231/280/212 241/284/222
f 246/289/227 257/296/238 256/295/237
f 238/297/219 239/291/220 250/298/231
f 246/289/227 247/292/228 258/299/239
f 240/293/221 251/300/232 250/298/231
f 375/294/356 376/301/240 258/299/239
f 240/293/221 241/284/222 252/302/233
f 242/285/223 253/303/234 252/302/233
f 243/286/224 254/304/235 253/303/234
f 243/286/224 244/287/225 255/305/236
f 244/287/225 245/288/226 256/295/237
f 253/303/234 264/307/245 263/306/244
f 254/304/235 265/308/246 264/307/245
f 254/304/235 255/305/236 266/309/247
f 255/305/236 256/295/237 267/310/248
f 257/296/238 268/311/249 267/310/248
f 249/312/230 250/298/231 261/313/242
f 257/296/238 258/299/239 269/314/250
f 251/300/232 262/315/243 261/313/242
f 376/301/240 377/316/251 269/314/250
f 251/300/232 252/302/233 263/306/244
f 268/311/249 279/318/260 278/317/259
f 260/319/241 261/313/242 272/320/253
f 268/311/249 269/314/250 280/321/261
f 262/315/243 273/322/254 272/320/253
f 280/321/261 379/324/358 281/323/262
f 262/315/243 263/306/244 274/325/255
f 378/326/357 281/323/262 379/324/358
f 264/307/245 275/327/256 274/325/255
f 265/308/246 276/328/257 275/327/256
f 265/308/246 266/309/247 277/329/258
f 266/309/247 267/310/248 278/317/259
f 276/328/257 287/331/268 286/330/267
f 276/328/257 277/329/258 288/332/269
f 277/329/258 278/317/259 289/333/270
f 279/318/260 290/334/271 289/333/270
f 271/335/252 272/320/253 283/336/264
f 279/318/260 280/321/261 291/337/272
f 273/322/254 284/338/265 283/336/264
f 281/323/262 292/339/273 291/337/272
f 273/322/254 274/325/255 285/340/266
f 378/326/357 380/341/359 292/339/273
f 275/327/256 286/330/267 285/340/266
f 290/334/271 291/337/272 302/342/283
f 284/338/265 295/344/276 294/343/275
f 292/339/273 303/345/284 302/342/283
f 284/338/265 285/340/266 296/346/277
f 380/341/359 381/347/360 303/345/284
f 286/330/267 297/348/278 296/346/277
f 287/331/268 298/349/279 297/348/278
f 287/331/268 288/332/269 299/350/280
f 288/332/269 289/333/270 300/351/281
f 290/334/271 301/352/282 300/351/281
f 282/353/263 283/336/264 294/343/275
f 298/349/279 299/350/280 310/354/291
f 299/350/280 300/351/281 311/355/292
f 301/352/282 312/356/293 311/355/292
f 293/357/274 294/343/275 305/358/286
f 301/352/282 302/342/283 313/359/294
f 295/344/276 306/360/287 305/358/286
f 303/345/284 314/361/295 313/359/294
f 295/344/276 296/346/277 307/362/288
f 381/347/360 382/363/361 314/361/295
f 297/348/278 308/364/289 307/362/288
f 298/349/279 309/365/290 308/364/289
f 306/360/287 317/367/298 316/366/297
f 314/361/295 325/369/306 324/368/305
f 306/360/287 307/362/288 318/370/299
f 382/363/361 383/371/362 325/369/306
f 308/364/289 319/372/300 318/370/299
f 309/365/290 320/373/301 319/372/300
f 309/365/290 310/354/291 321/374/302
f 310/354/291 311/355/292 322/375/303
f 312/356/293 323/376/304 322/375/303
f 304/377/285 305/358/286 316/366/297
f 312/356/293 313/359/294 324/368/305
f 320/373/301 321/374/302 332/378/313
f 321/374/302 322/375/303 333/379/314
f 323/376/304 334/380/315 333/379/314
f 315/381/296 316/366/297 327/382/308
f 323/376/304 324/368/305 335/383/316
f 317/367/298 328/384/309 327/382/308
f 325/369/306 336/385/317 335/383/316
f 317/367/298 318/370/299 329/386/310
f 383/371/362 384/387/363 336/385/317
f 319/372/300 330/388/311 329/386/310
f 320/373/301 331/389/312 330/388/311
f 336/385/317 347/391/328 346/390/327
f 328/384/309 329/386/310 340/392/321
f 336/385/317 384/387/363 385/393/364
f 330/388/311 341/394/322 340/392/321
f 331/389/312 342/395/323 341/394/322
f 331/389/312 332/378/313 343/396/324
f 332/378/313 333/379/314 344/397/325
f 334/380/315 345/398/326 344/397/325
f 326/399/307 327/382/308 338/400/319
f 334/380/315 335/383/316 346/390/327
f 328/384/309 339/401/320 338/400/319
f 343/396/324 344/397/325 350/57/331
f 344/397/325 345/398/326 36/59/18
f 338/400/319 348/60/329 31/402/13
f 345/398/326 346/390/327 351/64/332
f 339/401/320 32/65/14 348/60/329
f 347/391/328 352/68/333 351/64/332
f 340/392/321 349/69/330 32/65/14
f 347/391/328 385/393/364 386/72/365
f 341/394/322 33/73/15 349/69/330
f 342/395/323 34/53/16 33/73/15
f 342/395/323 343/396/324 35/55/17
f 270/403/251 379/324/358 377/316/251
f 259/404/240 270/403/251 377/316/251
f 248/405/229 259/404/240 376/301/240
f 79/104/61 357/106/338 356/107/337
f 34/53/16 43/54/25 42/75/24
f 35/55/17 44/56/26 43/54/25
f 350/57/331 45/58/27 44/56/26
f 348/60/329 37/61/19 31/402/13
f 36/59/18 46/63/28 45/58/27
f 32/65/14 38/62/20 348/60/329
f 351/64/332 47/67/29 46/63/28
f 349/69/330 39/66/21 32/65/14
f 352/68/333 353/71/334 47/67/29
f 33/73/15 40/70/22 349/69/330
f 33/73/15 42/75/24 41/74/23
f 41/74/23 53/76/35 52/86/34
f 42/75/24 54/77/36 53/76/35
f 43/54/25 55/78/37 54/77/36
f 44/56/26 56/79/38 55/78/37
f 37/61/19 49/80/31 48/97/30
f 45/58/27 57/81/39 56/79/38
f 38/62/20 50/82/32 49/80/31
f 47/67/29 57/81/39 46/63/28
f 39/66/21 51/84/33 50/82/32
f 47/67/29 354/85/335 58/83/40
f 41/74/23 51/84/33 40/70/22
f 57/81/39 67/87/49 56/79/38
f 49/80/31 61/89/43 60/98/42
f 58/83/40 68/88/50 57/81/39
f 50/82/32 62/91/44 61/89/43
f 58/83/40 355/92/336 69/90/51
f 51/84/33 63/93/45 62/91/44
f 52/86/34 64/94/46 63/93/45
f 54/77/36 64/94/46 53/76/35
f 54/77/36 66/96/48 65/95/47
f 56/79/38 66/96/48 55/78/37
f 48/97/30 60/98/42 59/102/41
f 64/94/46 76/99/58 75/111/57
f 65/95/47 77/100/59 76/99/58
f 67/87/49 77/100/59 66/96/48
f 59/102/41 71/103/53 70/406/52
f 67/87/49 79/104/61 78/101/60
f 60/98/42 72/105/54 71/103/53
f 61/89/43 73/109/55 72/105/54
f 63/93/45 73/109/55 62/91/44
f 64/94/46 74/110/56 63/93/45
f 72/105/54 81/112/63 71/103/53
f 79/104/61 358/114/339 89/121/71
f 72/105/54 83/115/65 82/113/64
f 74/110/56 83/115/65 73/109/55
f 75/111/57 84/116/66 74/110/56
f 75/111/57 86/118/68 85/117/67
f 76/99/58 87/119/69 86/118/68
f 78/101/60 87/119/69 77/100/59
f 78/101/60 89/121/71 88/120/70
f 85/117/67 95/122/77 94/131/76
f 86/118/68 96/123/78 95/122/77
f 88/120/70 96/123/78 87/119/69
f 88/120/70 98/125/80 97/124/79
f 82/113/64 90/126/72 81/112/63
f 89/121/71 359/128/340 98/125/80
f 82/113/64 92/129/74 91/127/73
f 84/116/66 92/129/74 83/115/65
f 85/117/67 93/130/75 84/116/66
f 98/125/80 360/132/341 106/139/88
f 91/127/73 100/133/82 99/144/81
f 93/130/75 100/133/82 92/129/74
f 94/131/76 101/134/83 93/130/75
f 94/131/76 103/136/85 102/135/84
f 95/122/77 104/137/86 103/136/85
f 97/124/79 104/137/86 96/123/78
f 97/124/79 106/139/88 105/138/87
f 103/136/85 112/140/94 111/148/93
f 105/138/87 112/140/94 104/137/86
f 105/138/87 114/142/96 113/141/95
f 106/139/88 361/143/342 114/142/96
f 99/144/81 108/145/90 107/157/89
f 101/134/83 108/145/90 100/133/82
f 102/135/84 109/146/91 101/134/83
f 102/135/84 111/148/93 110/147/92
f 109/146/91 116/149/98 108/145/90
f 110/147/92 117/150/99 109/146/91
f 110/147/92 119/152/101 118/151/100
f 111/148/93 120/153/102 119/152/101
f 113/141/95 120/153/102 112/140/94
f 113/141/95 122/155/104 121/154/103
f 114/142/96 362/156/343 122/155/104
f 107/157/89 116/149/98 115/162/97
f 121/154/103 130/158/112 120/153/102
f 121/154/103 132/160/114 131/159/113
f 122/155/104 363/161/344 132/160/114
f 115/162/97 126/163/108 125/177/107
f 117/150/99 126/163/108 116/149/98
f 118/151/100 127/164/109 117/150/99
f 118/151/100 129/166/111 128/165/110
f 119/152/101 130/158/112 129/166/111
f 127/164/109 136/167/117 126/163/108
f 128/165/110 137/168/118 127/164/109
f 128/165/110 139/170/120 138/169/119
f 129/166/111 140/171/121 139/170/120
f 131/159/113 140/171/121 130/158/112
f 123/173/105 134/174/115 133/407/105
f 131/159/113 142/176/123 141/172/122
f 125/177/107 134/174/115 124/175/106
f 132/160/114 364/179/345 142/176/123
f 125/177/107 136/167/117 135/178/116
f 141/172/122 149/180/130 140/171/121
f 141/172/122 151/182/132 150/181/131
f 135/178/116 143/183/124 134/174/115
f 142/176/123 365/185/346 151/182/132
f 135/178/116 145/186/126 144/184/125
f 137/168/118 145/186/126 136/167/117
f 138/169/119 146/187/127 137/168/118
f 138/169/119 148/189/129 147/188/128
f 139/170/120 149/180/130 148/189/129
f 147/188/128 155/190/136 146/187/127
f 147/188/128 157/192/138 156/191/137
f 148/189/129 158/193/139 157/192/138
f 150/181/131 158/193/139 149/180/130
f 150/181/131 160/195/141 159/194/140
f 144/184/125 152/196/133 143/183/124
f 151/182/132 366/198/347 160/195/141
f 144/184/125 154/199/135 153/197/134
f 146/187/127 154/199/135 145/186/126
f 159/194/140 169/200/150 168/209/149
f 153/197/134 161/201/142 152/196/133
f 160/195/141 367/203/348 169/200/150
f 153/197/134 163/204/144 162/202/143
f 155/190/136 163/204/144 154/199/135
f 156/191/137 164/205/145 155/190/136
f 156/191/137 166/207/147 165/206/146
f 157/192/138 167/208/148 166/207/147
f 159/194/140 167/208/148 158/193/139
f 165/206/146 173/210/154 164/205/145
f 165/206/146 175/212/156 174/211/155
f 166/207/147 176/213/157 175/212/156
f 168/209/149 176/213/157 167/208/148
f 168/209/149 178/215/159 177/214/158
f 162/202/143 170/216/151 161/201/142
f 367/203/348 178/215/159 169/200/150
f 162/202/143 172/219/153 171/217/152
f 164/205/145 172/219/153 163/204/144
f 177/214/158 187/220/168 186/229/167
f 171/217/152 179/221/160 170/216/151
f 368/218/349 187/220/168 178/215/159
f 171/217/152 181/224/162 180/222/161
f 173/210/154 181/224/162 172/219/153
f 174/211/155 182/225/163 173/210/154
f 174/211/155 184/227/165 183/226/164
f 175/212/156 185/228/166 184/227/165
f 177/214/158 185/228/166 176/213/157
f 183/226/164 194/230/175 193/239/174
f 184/227/165 195/231/176 194/230/175
f 186/229/167 195/231/176 185/228/166
f 186/229/167 197/233/178 196/232/177
f 180/222/161 189/234/170 179/221/160
f 369/223/350 197/233/178 187/220/168
f 180/222/161 191/237/172 190/235/171
f 182/225/163 191/237/172 181/224/162
f 183/226/164 192/238/173 182/225/163
f 370/236/351 207/240/188 197/233/178
f 190/235/171 201/242/182 200/250/181
f 192/238/173 201/242/182 191/237/172
f 193/239/174 202/243/183 192/238/173
f 193/239/174 204/245/185 203/244/184
f 194/230/175 205/246/186 204/245/185
f 196/232/177 205/246/186 195/231/176
f 188/248/169 199/249/180 198/253/179
f 196/232/177 207/240/188 206/247/187
f 190/235/171 199/249/180 189/234/170
f 204/245/185 215/251/196 214/261/195
f 206/247/187 215/251/196 205/246/186
f 198/253/179 209/254/190 208/268/189
f 206/247/187 217/255/198 216/252/197
f 200/250/181 209/254/190 199/249/180
f 371/241/352 217/255/198 207/240/188
f 200/250/181 211/258/192 210/256/191
f 202/243/183 211/258/192 201/242/182
f 203/244/184 212/259/193 202/243/183
f 203/244/184 214/261/195 213/260/194
f 210/256/191 221/262/202 220/271/201
f 212/259/193 221/262/202 211/258/192
f 213/260/194 222/263/203 212/259/193
f 213/260/194 224/265/205 223/264/204
f 214/261/195 225/266/206 224/265/205
f 216/252/197 225/266/206 215/251/196
f 208/268/189 219/269/200 218/275/199
f 216/252/197 227/270/208 226/267/207
f 210/256/191 219/269/200 209/254/190
f 372/257/353 227/270/208 217/255/198
f 224/265/205 235/273/216 234/283/215
f 226/267/207 235/273/216 225/266/206
f 218/275/199 229/276/210 228/290/209
f 226/267/207 237/277/218 236/274/217
f 220/271/201 229/276/210 219/269/200
f 373/272/354 237/277/218 227/270/208
f 220/271/201 231/280/212 230/278/211
f 222/263/203 231/280/212 221/262/202
f 223/264/204 232/281/213 222/263/203
f 223/264/204 234/283/215 233/282/214
f 232/281/213 241/284/222 231/280/212
f 233/282/214 242/285/223 232/281/213
f 233/282/214 244/287/225 243/286/224
f 234/283/215 245/288/226 244/287/225
f 236/274/217 245/288/226 235/273/216
f 228/290/209 239/291/220 238/297/219
f 236/274/217 247/292/228 246/289/227
f 229/276/210 240/293/221 239/291/220
f 374/279/355 247/292/228 237/277/218
f 230/278/211 241/284/222 240/293/221
f 246/289/227 256/295/237 245/288/226
f 238/297/219 250/298/231 249/312/230
f 246/289/227 258/299/239 257/296/238
f 240/293/221 250/298/231 239/291/220
f 375/294/356 258/299/239 247/292/228
f 240/293/221 252/302/233 251/300/232
f 242/285/223 252/302/233 241/284/222
f 243/286/224 253/303/234 242/285/223
f 243/286/224 255/305/236 254/304/235
f 244/287/225 256/295/237 255/305/236
f 253/303/234 263/306/244 252/302/233
f 254/304/235 264/307/245 253/303/234
f 254/304/235 266/309/247 265/308/246
f 255/305/236 267/310/248 266/309/247
f 257/296/238 267/310/248 256/295/237
f 249/312/230 261/313/242 260/319/241
f 257/296/238 269/314/250 268/311/249
f 251/300/232 261/313/242 250/298/231
f 376/301/240 269/314/250 258/299/239
f 251/300/232 263/306/244 262/315/243
f 268/311/249 278/317/259 267/310/248
f 260/319/241 272/320/253 271/335/252
f 268/311/249 280/321/261 279/318/260
f 262/315/243 272/320/253 261/313/242
f 262/315/243 274/325/255 273/322/254
f 264/307/245 274/325/255 263/306/244
f 265/308/246 275/327/256 264/307/245
f 265/308/246 277/329/258 276/328/257
f 266/309/247 278/317/259 277/329/258
f 276/328/257 286/330/267 275/327/256
f 276/328/257 288/332/269 287/331/268
f 277/329/258 289/333/270 288/332/269
f 279/318/260 289/333/270 278/317/259
f 271/335/252 283/336/264 282/353/263
f 279/318/260 291/337/272 290/334/271
f 273/322/254 283/336/264 272/320/253
f 281/323/262 291/337/272 280/321/261
f 273/322/254 285/340/266 284/338/265
f 378/326/357 292/339/273 281/323/262
f 275/327/256 285/340/266 274/325/255
f 290/334/271 302/342/283 301/352/282
f 284/338/265 294/343/275 283/336/264
f 292/339/273 302/342/283 291/337/272
f 284/338/265 296/346/277 295/344/276
f 380/341/359 303/345/284 292/339/273
f 286/330/267 296/346/277 285/340/266
f 287/331/268 297/348/278 286/330/267
f 287/331/268 299/350/280 298/349/279
f 288/332/269 300/351/281 299/350/280
f 290/334/271 300/351/281 289/333/270
f 282/353/263 294/343/275 293/357/274
f 298/349/279 310/354/291 309/365/290
f 299/350/280 311/355/292 310/354/291
f 301/352/282 311/355/292 300/351/281
f 293/357/274 305/358/286 304/377/285
f 301/352/282 313/359/294 312/356/293
f 295/344/276 305/358/286 294/343/275
f 303/345/284 313/359/294 302/342/283
f 295/344/276 307/362/288 306/360/287
f 381/347/360 314/361/295 303/345/284
f 297/348/278 307/362/288 296/346/277
f 298/349/279 308/364/289 297/348/278
f 306/360/287 316/366/297 305/358/286
f 314/361/295 324/368/305 313/359/294
f 306/360/287 318/370/299 317/367/298
f 382/363/361 325/369/306 314/361/295
f 308/364/289 318/370/299 307/362/288
f 309/365/290 319/372/300 308/364/289
f 309/365/290 321/374/302 320/373/301
f 310/354/291 322/375/303 321/374/302
f 312/356/293 322/375/303 311/355/292
f 304/377/285 316/366/297 315/381/296
f 312/356/293 324/368/305 323/376/304
f 320/373/301 332/378/313 331/389/312
f 321/374/302 333/379/314 332/378/313
f 323/376/304 333/379/314 322/375/303
f 315/381/296 327/382/308 326/399/307
f 323/376/304 335/383/316 334/380/315
f 317/367/298 327/382/308 316/366/297
f 325/369/306 335/383/316 324/368/305
f 317/367/298 329/386/310 328/384/309
f 383/371/362 336/385/317 325/369/306
f 319/372/300 329/386/310 318/370/299
f 320/373/301 330/388/311 319/372/300
f 336/385/317 346/390/327 335/383/316
f 328/384/309 340/392/321 339/401/320
f 336/385/317 385/393/364 347/391/328
f 330/388/311 340/392/321 329/386/310
f 331/389/312 341/394/322 330/388/311
f 331/389/312 343/396/324 342/395/323
f 332/378/313 344/397/325 343/396/324
f 334/380/315 344/397/325 333/379/314
f 326/399/307 338/400/319 337/408/318
f 334/380/315 346/390/327 345/398/326
f 328/384/309 338/400/319 327/382/308
f 343/396/324 350/57/331 35/55/17
f 344/397/325 36/59/18 350/57/331
f 338/400/319 31/402/13 337/408/318
f 345/398/326 351/64/332 36/59/18
f 339/401/320 348/60/329 338/400/319
f 347/391/328 351/64/332 346/390/327
f 340/392/321 32/65/14 339/401/320
f 347/391/328 386/72/365 352/68/333
f 341/394/322 349/69/330 340/392/321
f 342/395/323 33/73/15 341/394/322
f 342/395/323 35/55/17 34/53/16
f 259/404/240 377/316/251 376/301/240
f 248/405/229 376/301/240 375/294/356
f 379/324/358 280/321/261 377/316/251
f 377/316/251 280/321/261 269/314/250
f 357/106/338 68/88/50 69/90/51
f 68/88/50 357/106/338 79/104/61
o Cylinder
v 3.714285 4.284400 -5.857854
v 2.892128 3.588630 -7.543037
v 3.692319 4.361768 -5.879081
v 2.870162 3.665998 -7.564264
v 3.656617 4.435740 -5.892204
v 2.834460 3.739970 -7.577387
v 3.608551 4.503474 -5.896719
v 2.786393 3.807704 -7.581903
v 3.549967 4.562368 -5.892453
v 2.727810 3.866598 -7.577637
v 3.483118 4.610157 -5.879570
v 2.660961 3.914387 -7.564754
v 3.410573 4.645006 -5.858566
v 2.588415 3.949236 -7.543749
v 3.335118 4.665575 -5.830246
v 2.512961 3.969805 -7.515429
v 3.259655 4.671073 -5.795699
v 2.437497 3.975303 -7.480883
v 3.187082 4.661290 -5.756254
v 2.364925 3.965520 -7.441437
v 3.120189 4.636601 -5.713425
v 2.298032 3.940832 -7.398609
v 3.061547 4.597956 -5.668859
v 2.239390 3.902186 -7.354043
v 3.013409 4.546838 -5.624269
v 2.191252 3.851068 -7.309453
v 2.977625 4.485214 -5.581367
v 2.155468 3.789444 -7.266551
v 2.955570 4.415450 -5.541804
v 2.133413 3.719680 -7.226987
v 2.948092 4.340228 -5.507098
v 2.125934 3.644458 -7.192282
v 2.955478 4.262438 -5.478584
v 2.133320 3.566668 -7.163767
v 2.977444 4.185071 -5.457357
v 2.155286 3.489301 -7.142541
v 3.013146 4.111098 -5.444234
v 2.190989 3.415329 -7.129418
v 3.061213 4.043364 -5.439719
v 2.239055 3.347594 -7.124903
v 3.119796 3.984471 -5.443985
v 2.297638 3.288701 -7.129169
v 3.186645 3.936681 -5.456868
v 2.364487 3.240911 -7.142051
v 3.259191 3.901833 -5.477872
v 2.437033 3.206063 -7.163056
v 3.334645 3.881264 -5.506192
v 2.512487 3.185494 -7.191376
v 3.410108 3.875765 -5.540739
v 2.587951 3.179995 -7.225923
v 3.482681 3.885548 -5.580184
v 2.660523 3.189778 -7.265368
v 3.549574 3.910237 -5.623013
v 2.727416 3.214467 -7.308197
v 3.608216 3.948883 -5.667579
v 2.786058 3.253113 -7.352762
v 3.656354 4.000000 -5.712169
v 2.834197 3.304230 -7.397353
v 3.692138 4.061625 -5.755071
v 2.869981 3.365855 -7.440254
v 3.714193 4.131389 -5.794634
v 2.892036 3.435619 -7.479818
v 3.721671 4.206611 -5.829340
v 2.899514 3.510841 -7.514524
vn 0.8942 0.0259 -0.4469
vn 0.8424 0.2082 -0.4970
vn 0.7583 0.3825 -0.5279
vn 0.6450 0.5422 -0.5385
vn 0.5069 0.6810 -0.5285
vn 0.3494 0.7936 -0.4981
vn 0.1784 0.8757 -0.4486
vn 0.0006 0.9242 -0.3819
vn -0.1773 0.9372 -0.3004
vn -0.3483 0.9141 -0.2075
vn -0.5060 0.8559 -0.1065
vn -0.6442 0.7649 -0.0015
vn -0.6442 0.7648 -0.0015
vn -0.7577 0.6444 0.1036
vn -0.8420 0.4991 0.2047
vn -0.8940 0.3347 0.2979
vn -0.9116 0.1574 0.3797
vn -0.8942 -0.0259 0.4469
vn -0.8424 -0.2082 0.4970
vn -0.7583 -0.3825 0.5279
vn -0.6450 -0.5422 0.5385
vn -0.5069 -0.6810 0.5285
vn -0.3494 -0.7936 0.4981
vn -0.1784 -0.8757 0.4486
vn -0.0006 -0.9242 0.3819
vn 0.1773 -0.9372 0.3004
vn 0.3483 -0.9141 0.2075
vn 0.5060 -0.8559 0.1065
vn 0.6442 -0.7649 0.0015
vn 0.6442 -0.7648 0.0015
vn 0.7577 -0.6444 -0.1036
vn 0.8420 -0.4991 -0.2047
vn 0.8940 -0.3347 -0.2979
vn -0.4111 -0.3479 -0.8426
vn 0.9116 -0.1574 -0.3797
vn 0.4111 0.3479 0.8426
vt 1.000000 1.000000
vt 0.968750 0.500000
vt 1.000000 0.500000
vt 0.968750 1.000000
vt 0.937500 0.500000
vt 0.937500 1.000000
vt 0.906250 0.500000
vt 0.906250 1.000000
vt 0.875000 0.500000
vt 0.875000 1.000000
vt 0.843750 0.500000
vt 0.843750 1.000000
vt 0.812500 0.500000
vt 0.812500 1.000000
vt 0.781250 0.500000
vt 0.781250 1.000000
vt 0.750000 0.500000
vt 0.750000 1.000000
vt 0.718750 0.500000
vt 0.718750 1.000000
vt 0.687500 0.500000
vt 0.687500 1.000000
vt 0.656250 0.500000
vt 0.656250 1.000000
vt 0.625000 0.500000
vt 0.625000 1.000000
vt 0.593750 0.500000
vt 0.593750 1.000000
vt 0.562500 0.500000
vt 0.562500 1.000000
vt 0.531250 0.500000
vt 0.531250 1.000000
vt 0.500000 0.500000
vt 0.500000 1.000000
vt 0.468750 0.500000
vt 0.468750 1.000000
vt 0.437500 0.500000
vt 0.437500 1.000000
vt 0.406250 0.500000
vt 0.406250 1.000000
vt 0.375000 0.500000
vt 0.375000 1.000000
vt 0.343750 0.500000
vt 0.343750 1.000000
vt 0.312500 0.500000
vt 0.312500 1.000000
vt 0.281250 0.500000
vt 0.281250 1.000000
vt 0.250000 0.500000
vt 0.250000 1.000000
vt 0.218750 0.500000
vt 0.218750 1.000000
vt 0.187500 0.500000
vt 0.187500 1.000000
vt 0.156250 0.500000
vt 0.156250 1.000000
vt 0.125000 0.500000
vt 0.125000 1.000000
vt 0.093750 0.500000
vt 0.093750 1.000000
vt 0.062500 0.500000
vt 0.158156 0.028269
vt 0.471731 0.158156
vt 0.341844 0.471731
vt 0.062500 1.000000
vt 0.031250 0.500000
vt 0.031250 1.000000
vt 0.000000 0.500000
vt 0.796822 0.014612
vt 0.514612 0.203178
vt 0.703178 0.485388
vt 0.296822 0.485388
vt 0.250000 0.490000
vt 0.203178 0.485388
vt 0.158156 0.471731
vt 0.116663 0.449553
vt 0.080294 0.419706
vt 0.050447 0.383337
vt 0.028269 0.341844
vt 0.014612 0.296822
vt 0.010000 0.250000
vt 0.014612 0.203178
vt 0.028269 0.158156
vt 0.050447 0.116663
vt 0.080294 0.080294
vt 0.116663 0.050447
vt 0.203178 0.014612
vt 0.341844 0.028269
vt 0.250000 0.010000
vt 0.296822 0.014612
vt 0.383337 0.050447
vt 0.419706 0.080294
vt 0.449553 0.116663
vt 0.485388 0.203178
vt 0.471731 0.341844
vt 0.490000 0.250000
vt 0.485388 0.296822
vt 0.449553 0.383337
vt 0.419706 0.419706
vt 0.383337 0.449553
vt 0.000000 1.000000
vt 0.750000 0.490000
vt 0.796822 0.485388
vt 0.841844 0.471731
vt 0.883337 0.449553
vt 0.919706 0.419706
vt 0.949553 0.383337
vt 0.971731 0.341844
vt 0.985388 0.296822
vt 0.990000 0.250000
vt 0.985388 0.203178
vt 0.971731 0.158156
vt 0.949553 0.116663
vt 0.919706 0.080294
vt 0.883337 0.050447
vt 0.841844 0.028269
vt 0.750000 0.010000
vt 0.703178 0.014612
vt 0.658156 0.028269
vt 0.616663 0.050447
vt 0.580294 0.080294
vt 0.550447 0.116663
vt 0.528269 0.158156
vt 0.510000 0.250000
vt 0.514612 0.296822
vt 0.528269 0.341844
vt 0.550447 0.383337
vt 0.580294 0.419706
vt 0.616663 0.449553
vt 0.658156 0.471731
s 1
usemtl Material.010
f 388/409/366 389/410/367 387/411/366
f 390/412/367 391/413/368 389/410/367
f 392/414/368 393/415/369 391/413/368
f 394/416/369 395/417/370 393/415/369
f 396/418/370 397/419/371 395/417/370
f 398/420/371 399/421/372 397/419/371
f 400/422/372 401/423/373 399/421/372
f 402/424/373 403/425/374 401/423/373
f 404/426/374 405/427/375 403/425/374
f 406/428/375 407/429/376 405/427/375
f 408/430/376 409/431/377 407/429/376
f 410/432/378 411/433/379 409/431/377
f 412/434/379 413/435/380 411/433/379
f 414/436/380 415/437/381 413/435/380
f 416/438/381 417/439/382 415/437/381
f 418/440/382 419/441/383 417/439/382
f 420/442/383 421/443/384 419/441/383
f 422/444/384 423/445/385 421/443/384
f 424/446/385 425/447/386 423/445/385
f 426/448/386 427/449/387 425/447/386
f 428/450/387 429/451/388 427/449/387
f 430/452/388 431/453/389 429/451/388
f 432/454/389 433/455/390 431/453/389
f 434/456/390 435/457/391 433/455/390
f 436/458/391 437/459/392 435/457/391
f 438/460/392 439/461/393 437/459/392
f 440/462/393 441/463/394 439/461/393
f 442/464/395 443/465/396 441/463/394
f 444/466/396 445/467/397 443/465/396
f 446/468/397 447/469/398 445/467/397
f 424/470/399 408/471/399 392/472/399
f 448/473/398 449/474/400 447/469/398
f 450/475/400 387/476/366 449/474/400
f 417/477/401 433/478/401 449/479/401
f 388/409/366 390/412/367 389/410/367
f 390/412/367 392/414/368 391/413/368
f 392/414/368 394/416/369 393/415/369
f 394/416/369 396/418/370 395/417/370
f 396/418/370 398/420/371 397/419/371
f 398/420/371 400/422/372 399/421/372
f 400/422/372 402/424/373 401/423/373
f 402/424/373 404/426/374 403/425/374
f 404/426/374 406/428/375 405/427/375
f 406/428/375 408/430/376 407/429/376
f 408/430/376 410/432/378 409/431/377
f 410/432/378 412/434/379 411/433/379
f 412/434/379 414/436/380 413/435/380
f 414/436/380 416/438/381 415/437/381
f 416/438/381 418/440/382 417/439/382
f 418/440/382 420/442/383 419/441/383
f 420/442/383 422/444/384 421/443/384
f 422/444/384 424/446/385 423/445/385
f 424/446/385 426/448/386 425/447/386
f 426/448/386 428/450/387 427/449/387
f 428/450/387 430/452/388 429/451/388
f 430/452/388 432/454/389 431/453/389
f 432/454/389 434/456/390 433/455/390
f 434/456/390 436/458/391 435/457/391
f 436/458/391 438/460/392 437/459/392
f 438/460/392 440/462/393 439/461/393
f 440/462/393 442/464/395 441/463/394
f 442/464/395 444/466/396 443/465/396
f 444/466/396 446/468/397 445/467/397
f 446/468/397 448/473/398 447/469/398
f 392/472/399 390/480/399 388/481/399
f 388/481/399 450/482/399 392/472/399
f 450/482/399 448/483/399 392/472/399
f 448/483/399 446/484/399 444/485/399
f 444/485/399 442/486/399 440/487/399
f 440/487/399 438/488/399 436/489/399
f 436/489/399 434/490/399 440/487/399
f 434/490/399 432/491/399 440/487/399
f 432/491/399 430/492/399 428/493/399
f 428/493/399 426/494/399 424/470/399
f 424/470/399 422/495/399 416/496/399
f 422/495/399 420/497/399 416/496/399
f 420/497/399 418/498/399 416/496/399
f 416/496/399 414/499/399 412/500/399
f 412/500/399 410/501/399 408/471/399
f 408/471/399 406/502/399 400/503/399
f 406/502/399 404/504/399 400/503/399
f 404/504/399 402/505/399 400/503/399
f 400/503/399 398/506/399 396/507/399
f 396/507/399 394/508/399 392/472/399
f 448/483/399 444/485/399 392/472/399
f 444/485/399 440/487/399 392/472/399
f 432/491/399 428/493/399 440/487/399
f 428/493/399 424/470/399 440/487/399
f 416/496/399 412/500/399 424/470/399
f 412/500/399 408/471/399 424/470/399
f 400/503/399 396/507/399 408/471/399
f 396/507/399 392/472/399 408/471/399
f 392/472/399 440/487/399 424/470/399
f 448/473/398 450/475/400 449/474/400
f 450/475/400 388/509/366 387/476/366
f 449/479/401 387/510/401 389/511/401
f 389/511/401 391/512/401 393/513/401
f 393/513/401 395/514/401 397/515/401
f 397/515/401 399/516/401 401/517/401
f 401/517/401 403/518/401 405/519/401
f 405/519/401 407/520/401 409/521/401
f 409/521/401 411/522/401 413/523/401
f 413/523/401 415/524/401 417/477/401
f 417/477/401 419/525/401 421/526/401
f 421/526/401 423/527/401 425/528/401
f 425/528/401 427/529/401 429/530/401
f 429/530/401 431/531/401 433/478/401
f 433/478/401 435/532/401 437/533/401
f 437/533/401 439/534/401 441/535/401
f 441/535/401 443/536/401 445/537/401
f 445/537/401 447/538/401 449/479/401
f 449/479/401 389/511/401 401/517/401
f 389/511/401 393/513/401 401/517/401
f 393/513/401 397/515/401 401/517/401
f 401/517/401 405/519/401 417/477/401
f 405/519/401 409/521/401 417/477/401
f 409/521/401 413/523/401 417/477/401
f 417/477/401 421/526/401 433/478/401
f 421/526/401 425/528/401 433/478/401
f 425/528/401 429/530/401 433/478/401
f 433/478/401 437/533/401 449/479/401
f 437/533/401 441/535/401 449/479/401
f 441/535/401 445/537/401 449/479/401
f 449/479/401 401/517/401 417/477/401
o Cylinder.001
v 4.035352 2.608786 -5.312523
v 3.213194 1.913016 -6.997706
v 4.013386 2.686153 -5.333749
v 3.191228 1.990383 -7.018932
v 3.977683 2.760126 -5.346872
v 3.155526 2.064356 -7.032056
v 3.929617 2.827860 -5.351388
v 3.107460 2.132090 -7.036571
v 3.871034 2.886754 -5.347122
v 3.048876 2.190984 -7.032306
v 3.804185 2.934543 -5.334239
v 2.982027 2.238773 -7.019423
v 3.731639 2.969392 -5.313234
v 2.909482 2.273622 -6.998418
v 3.656185 2.989960 -5.284914
v 2.834027 2.294190 -6.970098
v 3.580721 2.995459 -5.250368
v 2.758564 2.299689 -6.935551
v 3.508149 2.985676 -5.210922
v 2.685991 2.289906 -6.896106
v 3.441256 2.960987 -5.168094
v 2.619098 2.265217 -6.853277
v 3.382614 2.922342 -5.123528
v 2.560456 2.226572 -6.808712
v 3.334476 2.871224 -5.078938
v 2.512318 2.175454 -6.764121
v 3.298691 2.809599 -5.036036
v 2.476534 2.113829 -6.721220
v 3.276636 2.739836 -4.996472
v 2.454479 2.044065 -6.681656
v 3.269158 2.664613 -4.961766
v 2.447001 1.968843 -6.646950
v 3.276544 2.586824 -4.933252
v 2.454387 1.891054 -6.618436
v 3.298510 2.509456 -4.912026
v 2.476353 1.813686 -6.597210
v 3.334213 2.435484 -4.898903
v 2.512055 1.739714 -6.584086
v 3.382279 2.367750 -4.894388
v 2.560122 1.671980 -6.579571
v 3.440862 2.308856 -4.898653
v 2.618705 1.613086 -6.583837
v 3.507711 2.261067 -4.911536
v 2.685554 1.565297 -6.596720
v 3.580257 2.226218 -4.932541
v 2.758100 1.530448 -6.617724
v 3.655711 2.205649 -4.960861
v 2.833554 1.509879 -6.646044
v 3.731175 2.200151 -4.995408
v 2.909017 1.504381 -6.680591
v 3.803747 2.209934 -5.034853
v 2.981590 1.514164 -6.720037
v 3.870640 2.234622 -5.077682
v 3.048483 1.538853 -6.762865
v 3.929282 2.273268 -5.122247
v 3.107125 1.577498 -6.807431
v 3.977420 2.324386 -5.166838
v 3.155263 1.628616 -6.852021
v 4.013205 2.386010 -5.209739
v 3.191047 1.690240 -6.894923
v 4.035259 2.455774 -5.249303
v 3.213102 1.760004 -6.934486
v 4.042738 2.530996 -5.284009
v 3.220580 1.835226 -6.969193
vn 0.8942 0.0259 -0.4469
vn 0.8424 0.2082 -0.4970
vn 0.7583 0.3825 -0.5279
vn 0.6450 0.5422 -0.5385
vn 0.5069 0.6810 -0.5285
vn 0.3494 0.7936 -0.4981
vn 0.1784 0.8757 -0.4486
vn 0.0006 0.9242 -0.3819
vn -0.1773 0.9372 -0.3004
vn -0.3483 0.9141 -0.2075
vn -0.5060 0.8559 -0.1065
vn -0.6442 0.7649 -0.0015
vn -0.6442 0.7648 -0.0015
vn -0.7577 0.6444 0.1036
vn -0.8420 0.4991 0.2047
vn -0.8940 0.3347 0.2979
vn -0.9116 0.1574 0.3797
vn -0.8942 -0.0259 0.4469
vn -0.8424 -0.2082 0.4970
vn -0.7583 -0.3825 0.5279
vn -0.6450 -0.5422 0.5385
vn -0.5069 -0.6810 0.5285
vn -0.3494 -0.7936 0.4981
vn -0.1784 -0.8757 0.4486
vn -0.0006 -0.9242 0.3819
vn 0.1773 -0.9372 0.3004
vn 0.3483 -0.9141 0.2075
vn 0.5060 -0.8559 0.1065
vn 0.6442 -0.7649 0.0015
vn 0.6442 -0.7648 0.0015
vn 0.7577 -0.6444 -0.1036
vn 0.8420 -0.4991 -0.2047
vn 0.8940 -0.3347 -0.2979
vn -0.4111 -0.3479 -0.8426
vn 0.9116 -0.1574 -0.3797
vn 0.4111 0.3479 0.8426
vt 1.000000 1.000000
vt 0.968750 0.500000
vt 1.000000 0.500000
vt 0.968750 1.000000
vt 0.937500 0.500000
vt 0.937500 1.000000
vt 0.906250 0.500000
vt 0.906250 1.000000
vt 0.875000 0.500000
vt 0.875000 1.000000
vt 0.843750 0.500000
vt 0.843750 1.000000
vt 0.812500 0.500000
vt 0.812500 1.000000
vt 0.781250 0.500000
vt 0.781250 1.000000
vt 0.750000 0.500000
vt 0.750000 1.000000
vt 0.718750 0.500000
vt 0.718750 1.000000
vt 0.687500 0.500000
vt 0.687500 1.000000
vt 0.656250 0.500000
vt 0.656250 1.000000
vt 0.625000 0.500000
vt 0.625000 1.000000
vt 0.593750 0.500000
vt 0.593750 1.000000
vt 0.562500 0.500000
vt 0.562500 1.000000
vt 0.531250 0.500000
vt 0.531250 1.000000
vt 0.500000 0.500000
vt 0.500000 1.000000
vt 0.468750 0.500000
vt 0.468750 1.000000
vt 0.437500 0.500000
vt 0.437500 1.000000
vt 0.406250 0.500000
vt 0.406250 1.000000
vt 0.375000 0.500000
vt 0.375000 1.000000
vt 0.343750 0.500000
vt 0.343750 1.000000
vt 0.312500 0.500000
vt 0.312500 1.000000
vt 0.281250 0.500000
vt 0.281250 1.000000
vt 0.250000 0.500000
vt 0.250000 1.000000
vt 0.218750 0.500000
vt 0.218750 1.000000
vt 0.187500 0.500000
vt 0.187500 1.000000
vt 0.156250 0.500000
vt 0.156250 1.000000
vt 0.125000 0.500000
vt 0.125000 1.000000
vt 0.093750 0.500000
vt 0.093750 1.000000
vt 0.062500 0.500000
vt 0.158156 0.028269
vt 0.471731 0.158156
vt 0.341844 0.471731
vt 0.062500 1.000000
vt 0.031250 0.500000
vt 0.031250 1.000000
vt 0.000000 0.500000
vt 0.796822 0.014612
vt 0.514612 0.203178
vt 0.703178 0.485388
vt 0.296822 0.485388
vt 0.250000 0.490000
vt 0.203178 0.485388
vt 0.158156 0.471731
vt 0.116663 0.449553
vt 0.080294 0.419706
vt 0.050447 0.383337
vt 0.028269 0.341844
vt 0.014612 0.296822
vt 0.010000 0.250000
vt 0.014612 0.203178
vt 0.028269 0.158156
vt 0.050447 0.116663
vt 0.080294 0.080294
vt 0.116663 0.050447
vt 0.203178 0.014612
vt 0.341844 0.028269
vt 0.250000 0.010000
vt 0.296822 0.014612
vt 0.383337 0.050447
vt 0.419706 0.080294
vt 0.449553 0.116663
vt 0.485388 0.203178
vt 0.471731 0.341844
vt 0.490000 0.250000
vt 0.485388 0.296822
vt 0.449553 0.383337
vt 0.419706 0.419706
vt 0.383337 0.449553
vt 0.000000 1.000000
vt 0.750000 0.490000
vt 0.796822 0.485388
vt 0.841844 0.471731
vt 0.883337 0.449553
vt 0.919706 0.419706
vt 0.949553 0.383337
vt 0.971731 0.341844
vt 0.985388 0.296822
vt 0.990000 0.250000
vt 0.985388 0.203178
vt 0.971731 0.158156
vt 0.949553 0.116663
vt 0.919706 0.080294
vt 0.883337 0.050447
vt 0.841844 0.028269
vt 0.750000 0.010000
vt 0.703178 0.014612
vt 0.658156 0.028269
vt 0.616663 0.050447
vt 0.580294 0.080294
vt 0.550447 0.116663
vt 0.528269 0.158156
vt 0.510000 0.250000
vt 0.514612 0.296822
vt 0.528269 0.341844
vt 0.550447 0.383337
vt 0.580294 0.419706
vt 0.616663 0.449553
vt 0.658156 0.471731
s 1
usemtl Material.011
f 452/539/402 453/540/403 451/541/402
f 454/542/403 455/543/404 453/540/403
f 456/544/404 457/545/405 455/543/404
f 458/546/405 459/547/406 457/545/405
f 460/548/406 461/549/407 459/547/406
f 462/550/407 463/551/408 461/549/407
f 464/552/408 465/553/409 463/551/408
f 466/554/409 467/555/410 465/553/409
f 468/556/410 469/557/411 467/555/410
f 470/558/411 471/559/412 469/557/411
f 472/560/412 473/561/413 471/559/412
f 474/562/414 475/563/415 473/561/413
f 476/564/415 477/565/416 475/563/415
f 478/566/416 479/567/417 477/565/416
f 480/568/417 481/569/418 479/567/417
f 482/570/418 483/571/419 481/569/418
f 484/572/419 485/573/420 483/571/419
f 486/574/420 487/575/421 485/573/420
f 488/576/421 489/577/422 487/575/421
f 490/578/422 491/579/423 489/577/422
f 492/580/423 493/581/424 491/579/423
f 494/582/424 495/583/425 493/581/424
f 496/584/425 497/585/426 495/583/425
f 498/586/426 499/587/427 497/585/426
f 500/588/427 501/589/428 499/587/427
f 502/590/428 503/591/429 501/589/428
f 504/592/429 505/593/430 503/591/429
f 506/594/431 507/595/432 505/593/430
f 508/596/432 509/597/433 507/595/432
f 510/598/433 511/599/434 509/597/433
f 488/600/435 472/601/435 456/602/435
f 512/603/434 513/604/436 511/599/434
f 514/605/436 451/606/402 513/604/436
f 481/607/437 497/608/437 513/609/437
f 452/539/402 454/542/403 453/540/403
f 454/542/403 456/544/404 455/543/404
f 456/544/404 458/546/405 457/545/405
f 458/546/405 460/548/406 459/547/406
f 460/548/406 462/550/407 461/549/407
f 462/550/407 464/552/408 463/551/408
f 464/552/408 466/554/409 465/553/409
f 466/554/409 468/556/410 467/555/410
f 468/556/410 470/558/411 469/557/411
f 470/558/411 472/560/412 471/559/412
f 472/560/412 474/562/414 473/561/413
f 474/562/414 476/564/415 475/563/415
f 476/564/415 478/566/416 477/565/416
f 478/566/416 480/568/417 479/567/417
f 480/568/417 482/570/418 481/569/418
f 482/570/418 484/572/419 483/571/419
f 484/572/419 486/574/420 485/573/420
f 486/574/420 488/576/421 487/575/421
f 488/576/421 490/578/422 489/577/422
f 490/578/422 492/580/423 491/579/423
f 492/580/423 494/582/424 493/581/424
f 494/582/424 496/584/425 495/583/425
f 496/584/425 498/586/426 497/585/426
f 498/586/426 500/588/427 499/587/427
f 500/588/427 502/590/428 501/589/428
f 502/590/428 504/592/429 503/591/429
f 504/592/429 506/594/431 505/593/430
f 506/594/431 508/596/432 507/595/432
f 508/596/432 510/598/433 509/597/433
f 510/598/433 512/603/434 511/599/434
f 456/602/435 454/610/435 452/611/435
f 452/611/435 514/612/435 456/602/435
f 514/612/435 512/613/435 456/602/435
f 512/613/435 510/614/435 508/615/435
f 508/615/435 506/616/435 504/617/435
f 504/617/435 502/618/435 500/619/435
f 500/619/435 498/620/435 504/617/435
f 498/620/435 496/621/435 504/617/435
f 496/621/435 494/622/435 492/623/435
f 492/623/435 490/624/435 488/600/435
f 488/600/435 486/625/435 480/626/435
f 486/625/435 484/627/435 480/626/435
f 484/627/435 482/628/435 480/626/435
f 480/626/435 478/629/435 476/630/435
f 476/630/435 474/631/435 472/601/435
f 472/601/435 470/632/435 464/633/435
f 470/632/435 468/634/435 464/633/435
f 468/634/435 466/635/435 464/633/435
f 464/633/435 462/636/435 460/637/435
f 460/637/435 458/638/435 456/602/435
f 512/613/435 508/615/435 456/602/435
f 508/615/435 504/617/435 456/602/435
f 496/621/435 492/623/435 504/617/435
f 492/623/435 488/600/435 504/617/435
f 480/626/435 476/630/435 488/600/435
f 476/630/435 472/601/435 488/600/435
f 464/633/435 460/637/435 472/601/435
f 460/637/435 456/602/435 472/601/435
f 456/602/435 504/617/435 488/600/435
f 512/603/434 514/605/436 513/604/436
f 514/605/436 452/639/402 451/606/402
f 513/609/437 451/640/437 453/641/437
f 453/641/437 455/642/437 457/643/437
f 457/643/437 459/644/437 461/645/437
f 461/645/437 463/646/437 465/647/437
f 465/647/437 467/648/437 469/649/437
f 469/649/437 471/650/437 473/651/437
f 473/651/437 475/652/437 477/653/437
f 477/653/437 479/654/437 481/607/437
f 481/607/437 483/655/437 485/656/437
f 485/656/437 487/657/437 489/658/437
f 489/658/437 491/659/437 493/660/437
f 493/660/437 495/661/437 497/608/437
f 497/608/437 499/662/437 501/663/437
f 501/663/437 503/664/437 505/665/437
f 505/665/437 507/666/437 509/667/437
f 509/667/437 511/668/437 513/609/437
f 513/609/437 453/641/437 465/647/437
f 453/641/437 457/643/437 465/647/437
f 457/643/437 461/645/437 465/647/437
f 465/647/437 469/649/437 481/607/437
f 469/649/437 473/651/437 481/607/437
f 473/651/437 477/653/437 481/607/437
f 481/607/437 485/656/437 497/608/437
f 485/656/437 489/658/437 497/608/437
f 489/658/437 493/660/437 497/608/437
f 497/608/437 501/663/437 513/609/437
f 501/663/437 505/665/437 513/609/437
f 505/665/437 509/667/437 513/609/437
f 513/609/437 465/647/437 481/607/437
o Plane
v -0.249662 0.168423 -2.651548
v 3.316878 0.271648 -4.434189
v -0.553230 1.752714 -3.167158
v 3.013310 1.855939 -4.949799
vn -0.4102 -0.3524 -0.8412
vt 1.000000 0.000000
vt 0.000000 1.000000
vt 0.000000 0.000000
vt 1.000000 1.000000
s 0
usemtl Material.012
f 516/669/438 515/671/438 517/670/438
f 516/669/438 517/670/438 518/672/438
o Plane.001
v -6.509866 0.000000 -0.382651
v 5.936752 0.000000 -0.382651
v -6.509866 0.000000 -14.923339
v 5.936752 0.000000 -14.923339
vn -0.0000 1.0000 -0.0000
vt 1.000000 0.000000
vt 0.000000 1.000000
vt 0.000000 0.000000
vt 1.000000 1.000000
s 0
usemtl Material.004
f 520/673/439 521/674/439 519/675/439
f 520/673/439 522/676/439 521/674/439
o Plane.003
v -6.399867 12.425836 -0.382651
v -6.399868 -0.020782 -0.382651
v -6.399867 12.425836 -14.923339
v -6.399868 -0.020782 -14.923339
vn 1.0000 -0.0000 -0.0000
vt 1.000000 0.000000
vt 0.000000 1.000000
vt 0.000000 0.000000
vt 1.000000 1.000000
s 0
usemtl Material.013
f 524/677/440 525/678/440 523/679/440
f 524/677/440 526/680/440 525/678/440
o Plane.004
v 5.924917 0.000000 -0.382651
v 18.371534 0.000000 -0.382651
v 5.924917 0.000000 -14.923339
v 18.371534 0.000000 -14.923339
vn -0.0000 1.0000 -0.0000
vt 1.000000 0.000000
vt 0.000000 1.000000
vt 0.000000 0.000000
vt 1.000000 1.000000
s 0
usemtl Material.002
f 528/681/441 529/682/441 527/683/441
f 528/681/441 530/684/441 529/682/441
o Plane.005
v 18.272356 12.425836 -0.382651
v 18.272356 -0.020782 -0.382651
v 18.272356 12.425836 -14.923339
v 18.272356 -0.020782 -14.923339
vn 1.0000 -0.0000 -0.0000
vt 1.000000 0.000000
vt 0.000000 1.000000
vt 0.000000 0.000000
vt 1.000000 1.000000
s 0
usemtl Material.018
f 532/685/442 533/686/442 531/687/442
f 532/685/442 534/688/442 533/686/442
o Plane.006
v 5.924917 0.000000 -14.912811
v 18.371534 0.000000 -14.912811
v 5.924917 0.000000 -29.453499
v 18.371534 0.000000 -29.453499
vn -0.0000 1.0000 -0.0000
vt 1.000000 0.000000
vt 0.000000 1.000000
vt 0.000000 0.000000
vt 1.000000 1.000000
s 0
usemtl Material.005
f 536/689/443 537/690/443 535/691/443
f 536/689/443 538/692/443 537/690/443
o Plane.007
v -6.552970 0.000000 -14.912811
v 5.893648 0.000000 -14.912811
v -6.552970 0.000000 -29.453499
v 5.893648 0.000000 -29.453499
vn -0.0000 1.0000 -0.0000
vt 1.000000 0.000000
vt 0.000000 1.000000
vt 0.000000 0.000000
vt 1.000000 1.000000
s 0
usemtl Material.006
f 540/693/444 541/694/444 539/695/444
f 540/693/444 542/696/444 541/694/444
o Plane.008
v -6.399867 12.425836 -14.942356
v -6.399868 -0.020782 -14.942356
v -6.399867 12.425836 -29.483044
v -6.399868 -0.020782 -29.483044
vn 1.0000 -0.0000 -0.0000
vt 1.000000 0.000000
vt 0.000000 1.000000
vt 0.000000 0.000000
vt 1.000000 1.000000
s 0
usemtl Material.014
f 544/697/445 545/698/445 543/699/445
f 544/697/445 546/700/445 545/698/445
o Plane.009
v 18.289001 12.425836 -14.942356
v 18.289001 -0.020782 -14.942356
v 18.289001 12.425836 -29.483044
v 18.289001 -0.020782 -29.483044
vn 1.0000 -0.0000 -0.0000
vt 1.000000 0.000000
vt 0.000000 1.000000
vt 0.000000 0.000000
vt 1.000000 1.000000
s 0
usemtl Material.017
f 548/701/446 549/702/446 547/703/446
f 548/701/446 550/704/446 549/702/446
o Plane.010
v 6.150342 12.425837 -29.502522
v 6.150343 -0.020782 -29.502522
v -8.390346 12.425835 -29.502522
v -8.390345 -0.020783 -29.502522
vn -0.0000 -0.0000 -1.0000
vt 1.000000 0.000000
vt 0.000000 1.000000
vt 0.000000 0.000000
vt 1.000000 1.000000
s 0
usemtl Material.015
f 552/705/447 553/706/447 551/707/447
f 552/705/447 554/708/447 553/706/447
o Plane.011
v 20.710047 12.425837 -29.485876
v 20.710049 -0.020782 -29.485876
v 6.169360 12.425835 -29.485876
v 6.169361 -0.020783 -29.485876
vn -0.0000 -0.0000 -1.0000
vt 1.000000 0.000000
vt 0.000000 1.000000
vt 0.000000 0.000000
vt 1.000000 1.000000
s 0
usemtl Material.016
f 556/709/448 557/710/448 555/711/448
f 556/709/448 558/712/448 557/710/448
o Plane.012
v -6.509866 0.040407 13.936249
v 5.936752 0.040407 13.936249
v -6.509866 0.040407 -0.604439
v 5.936752 0.040407 -0.604439
vn -0.0000 1.0000 -0.0000
vt 1.000000 0.000000
vt 0.000000 1.000000
vt 0.000000 0.000000
vt 1.000000 1.000000
s 0
usemtl Material
f 560/713/449 561/714/449 559/715/449
f 560/713/449 562/716/449 561/714/449
o Plane.013
v 5.934131 0.052086 13.936249
v 18.380749 0.052086 13.936249
v 5.934131 0.052086 -0.604439
v 18.380749 0.052086 -0.604439
vn -0.0000 1.0000 -0.0000
vt 1.000000 0.000000
vt 0.000000 1.000000
vt 0.000000 0.000000
vt 1.000000 1.000000
s 0
usemtl Material.001
f 564/717/450 565/718/450 563/719/450
f 564/717/450 566/720/450 565/718/450
o Plane.014
v 18.272356 12.425836 14.019448
v 18.272356 -0.020782 14.019448
v 18.272356 12.425836 -0.521239
v 18.272356 -0.020782 -0.521239
vn 1.0000 -0.0000 -0.0000
vt 1.000000 0.000000
vt 0.000000 1.000000
vt 0.000000 0.000000
vt 1.000000 1.000000
s 0
usemtl Material.019
f 568/721/451 569/722/451 567/723/451
f 568/721/451 570/724/451 569/722/451
o Plane.015
v -6.353753 12.425836 14.019448
v -6.353754 -0.020782 14.019448
v -6.353753 12.425836 -0.521239
v -6.353754 -0.020782 -0.521239
vn 1.0000 -0.0000 -0.0000
vt 1.000000 0.000000
vt 0.000000 1.000000
vt 0.000000 0.000000
vt 1.000000 1.000000
s 0
usemtl Material.007
f 572/725/452 573/726/452 571/727/452
f 572/725/452 574/728/452 573/726/452
